<svg xmlns:dc="http://purl.org/dc/elements/1.1/" xmlns:cc="http://creativecommons.org/ns#" xmlns:rdf="http://www.w3.org/1999/02/22-rdf-syntax-ns#" xmlns:svg="http://www.w3.org/2000/svg" xmlns="http://www.w3.org/2000/svg" xmlns:sodipodi="http://sodipodi.sourceforge.net/DTD/sodipodi-0.dtd" xmlns:inkscape="http://www.inkscape.org/namespaces/inkscape" viewBox="0 0 117.18932 49.761547" height="74.6423205" width="175.78397999999999" xml:space="preserve" id="svg2" version="1.1" sodipodi:docname="example_13-4.svg" inkscape:version="0.92.4 (5da689c313, 2019-01-14)" viewbox="0 0 175.78397999999999 74.6423205"><sodipodi:namedview pagecolor="#ffffff" bordercolor="#666666" borderopacity="1" objecttolerance="10" gridtolerance="10" guidetolerance="10" inkscape:pageopacity="0" inkscape:pageshadow="2" inkscape:window-width="640" inkscape:window-height="480" id="namedview53" showgrid="false" inkscape:zoom="0.22348485" inkscape:cx="336.69301" inkscape:cy="-290.72324" inkscape:window-x="0" inkscape:window-y="0" inkscape:window-maximized="0" inkscape:current-layer="svg2"/><metadata id="metadata8"><rdf:RDF><cc:Work rdf:about=""><dc:format>image/svg+xml</dc:format><dc:type rdf:resource="http://purl.org/dc/dcmitype/StillImage"/></cc:Work></rdf:RDF></metadata><defs id="defs6"/><g transform="matrix(1.3333333,0,0,-1.3333333,-71.306988,868.48479)" id="g10"><g transform="matrix(0.06,0,0,-0.06,0,792)" id="g12"><g id="g14"><g id="g16"/></g><g id="g18"><g id="g20"/><g transform="scale(2.5835866,2.5834802)" id="g22"><path id="path24" style="fill:none;stroke:#000000;stroke-width:3;stroke-linecap:butt;stroke-linejoin:bevel;stroke-miterlimit:10;stroke-dasharray:none;stroke-opacity:1" d="M 345,1098 H 637" inkscape:connector-curvature="0"/><path id="path26" style="fill:none;stroke:#000000;stroke-width:3;stroke-linecap:butt;stroke-linejoin:bevel;stroke-miterlimit:10;stroke-dasharray:none;stroke-opacity:1" d="M 345,1066 H 637" inkscape:connector-curvature="0"/><path id="path28" style="fill:none;stroke:#000000;stroke-width:3;stroke-linecap:butt;stroke-linejoin:bevel;stroke-miterlimit:10;stroke-dasharray:none;stroke-opacity:1" d="M 345,1034 H 637" inkscape:connector-curvature="0"/><path id="path30" style="fill:none;stroke:#000000;stroke-width:3;stroke-linecap:butt;stroke-linejoin:bevel;stroke-miterlimit:10;stroke-dasharray:none;stroke-opacity:1" d="M 345,1002 H 637" inkscape:connector-curvature="0"/><path id="path32" style="fill:none;stroke:#000000;stroke-width:3;stroke-linecap:butt;stroke-linejoin:bevel;stroke-miterlimit:10;stroke-dasharray:none;stroke-opacity:1" d="M 345,970 H 637" inkscape:connector-curvature="0"/><g id="g34"><g aria-label="&amp;" transform="translate(369,1066)" style="font-variant:normal;font-weight:normal;font-size:128px;font-family:'Opus Std';-inkscape-font-specification:OpusStd;writing-mode:lr-tb;fill:#000000;fill-opacity:1;fill-rule:nonzero;stroke:none" id="text38"><path d="m 66.944,28.032 4.864,23.68 c 0.256,1.408 0.384,2.688 0.384,3.968 0,12.544 -12.8,23.04 -26.624,23.04 -4.224,0 -8.32,-1.024 -12.16,-2.944 9.856,-1.024 17.28,-7.04 17.28,-15.872 0,-7.808 -6.4,-16 -14.592,-16 -9.344,0 -15.744,7.168 -15.744,16.512 0,13.056 10.624,21.632 23.424,21.632 17.152,0 31.744,-11.136 31.744,-27.136 0,-3.584 -5.632,-28.928 -5.504,-28.032 13.696,-6.656 23.04,-18.432 23.04,-30.848 0,-17.024 -13.696,-30.08 -30.72,-30.08 -0.256,0 -2.048,0.128 -5.12,0.384 l -5.632,-27.008 c 19.072,-16.128 27.776,-33.28 27.776,-52.096 0,-14.464 -5.76,-29.824 -17.408,-45.952 -13.184,10.624 -20.736,31.872 -20.736,54.528 0,8.064 1.024,15.872 2.816,23.296 -29.184,24.448 -43.776,46.976 -43.776,67.584 0,24.192 24.96,44.288 52.096,44.288 6.016,0 10.496,-0.896 14.592,-2.944 z M 66.56,-140.16 c 4.224,4.352 6.4,9.472 6.4,15.488 0,12.416 -8.832,26.368 -26.112,41.728 -0.896,-3.712 -1.152,-7.808 -1.152,-12.288 0,-21.504 7.936,-45.184 18.56,-45.184 0.896,0 1.664,0.128 2.304,0.256 z M 69.248,22.784 60.16,-19.968 c 1.792,-0.128 2.816,-0.256 3.2,-0.256 11.008,0 18.688,10.368 18.688,20.992 0,8.448 -4.48,15.872 -12.8,22.016 z m -12.288,-42.24 9.216,44.032 c -4.48,2.432 -9.472,3.456 -15.488,3.456 -20.736,0 -38.656,-15.488 -38.656,-34.304 0,-17.024 12.672,-34.56 36.608,-52.48 l 5.376,25.6 C 40.704,-30.336 29.44,-19.072 29.44,-6.4 c 0,10.752 7.68,18.304 19.2,20.096 C 41.6,9.344 38.144,3.84 38.144,-2.688 c 0,-8.832 8.192,-15.36 18.816,-16.768 z" style="" id="path55"/></g>
</g></g><g transform="matrix(2.5835866,0,0,2.5834802,1645.7447,2327.9575)" id="g40"><g id="g42"/></g><g transform="scale(2.5835866,2.5834802)" id="g44"/><g transform="matrix(2.5835866,0,0,2.5834802,1940.2736,2539.8029)" id="g46"><g id="g48"><g aria-label="third" transform="translate(0,68.890625)" style="font-variant:normal;font-weight:normal;font-size:77px;font-family:'Plantin MT Std';-inkscape-font-specification:PlantinMTStd-Regular;writing-mode:lr-tb;fill:#000000;fill-opacity:1;fill-rule:nonzero;stroke:none" id="text52"><path d="m 13.783,-30.8 h 10.472 v -3.85 H 13.783 v -6.16 h -2.618 c -2.387,3.003 -5.236,6.391 -9.625,7.931 v 2.079 h 5.775 v 24.871 c 0,4.697 2.156,6.776 7.238,6.776 3.234,0 6.699,-0.77 10.087,-1.309 v -3.773 c -1.386,0.231 -3.927,0.385 -5.467,0.385 -4.543,0 -5.39,-1.078 -5.39,-4.62 z" style="" id="path58"/><path d="m 61.984625,-24.332 c 0,-8.162 -5.005,-11.165 -10.549,-11.165 -4.62,0 -7.931,1.463 -12.782,5.775 v -23.793 h -1.925 l -10.318,3.542 v 1.771 l 5.775,3.234 v 36.036 c 0,3.234 -1.232,6.16 -5.775,6.16 V 0 h 18.403 v -2.772 c -4.543,0 -6.16,-2.002 -6.16,-6.699 v -17.325 c 2.849,-2.233 6.16,-3.542 9.394,-3.542 4.466,0 7.469,2.849 7.469,7.546 v 14.476 c 0,3.08 -1.694,5.544 -5.775,5.544 V 0 h 17.864 v -2.772 c -3.234,0 -5.621,-1.771 -5.621,-5.929 z" style="" id="path60"/><path d="m 76.682125,-8.393 c 0,3.85 -2.618,5.621 -5.544,5.621 V 0 h 16.786 v -2.772 c -2.772,-0.077 -4.774,-1.925 -4.774,-6.16 v -26.565 h -1.925 l -10.395,3.773 v 1.771 l 5.852,2.926 z m -1.232,-40.964 c 0,2.31 1.848,4.158 4.158,4.158 2.31,0 4.158,-1.848 4.158,-4.158 0,-2.31 -1.848,-4.158 -4.158,-4.158 -2.31,0 -4.158,1.848 -4.158,4.158 z" style="" id="path62"/><path d="m 103.5475,-23.716 c 3.08,-4.389 4.466,-5.698 6.314,-5.698 2.541,0 3.157,3.619 5.775,3.619 2.387,0 3.157,-4.62 3.157,-5.005 0,-1.54 -2.31,-4.389 -5.698,-4.389 -4.004,0 -5.929,1.617 -9.394,7.315 h -0.154 v -7.623 h -1.925 l -10.241,4.158 v 1.771 l 5.698,2.849 v 18.018 c 0,4.389 -2.618,5.929 -5.698,5.929 V 0 h 20.02 v -2.772 c -6.776,0 -7.854,-1.617 -7.854,-7.392 z" style="" id="path64"/><path d="m 148.9775,-34.034 c -3.542,-1.001 -6.16,-1.463 -8.547,-1.463 -10.241,0 -18.788,9.009 -18.788,19.866 0,9.163 6.391,16.478 14.476,16.478 4.312,0 8.855,-2.002 12.859,-5.775 v 5.775 h 1.925 l 10.087,-2.156 v -3.08 c -3.85,1.155 -5.544,-0.154 -5.544,-3.542 v -45.584 h -1.925 l -10.164,3.003 v 1.771 l 5.621,3.08 z m 0,25.333 c -2.233,2.849 -5.467,4.389 -9.086,4.389 -8.855,0 -11.781,-9.933 -11.781,-15.323 0,-6.93 4.851,-12.551 10.703,-12.551 4.235,0 10.164,3.157 10.164,12.551 z" style="" id="path66"/></g>
</g></g><g transform="scale(2.5835866,2.5834802)" id="g54"/><g transform="matrix(2.5835866,0,0,2.5834802,1940.2736,2746.4813)" id="g56"><g id="g58"><g aria-label="&#64257;fth" transform="translate(0,68.890625)" style="font-variant:normal;font-weight:normal;font-size:77px;font-family:'Plantin MT Std';-inkscape-font-specification:PlantinMTStd-Regular;writing-mode:lr-tb;fill:#000000;fill-opacity:1;fill-rule:nonzero;stroke:none" id="text62"><path d="m 31.185,-8.393 c 0,3.927 -2.387,5.621 -5.775,5.621 V 0 h 17.71 v -2.772 c -2.772,-0.077 -5.467,-1.54 -5.467,-5.775 v -27.412 c -1.617,1.078 -4.312,1.309 -6.391,1.309 H 14.784 v -5.698 c 0,-7.007 3.388,-10.164 8.47,-10.164 5.929,0 6.083,5.698 10.241,5.698 1.771,0 3.234,-1.54 3.234,-3.465 0,-3.234 -4.543,-5.544 -10.857,-5.544 -10.087,0 -17.017,6.314 -17.325,14.784 -0.154,3.542 -1.232,4.389 -4.774,4.389 H 1.386 v 3.619 h 6.93 v 22.407 c 0,3.773 -1.925,5.852 -5.775,5.852 V 0 H 20.405 V -2.772 C 15.939,-3.003 14.784,-5.39 14.784,-9.548 v -21.483 h 11.473 c 3.542,0 4.928,1.54 4.928,4.004 z" style="" id="path69"/><path d="m 58.662375,-31.031 h 9.163 v -3.619 h -9.163 v -8.778 c 0,-5.236 3.003,-7.084 5.313,-7.084 3.773,0 4.543,5.621 8.162,5.621 2.002,0 3.388,-1.309 3.388,-3.234 0,-3.311 -3.619,-5.698 -8.624,-5.698 -9.779,0 -14.707,7.084 -14.938,15.785 -0.077,2.926 -0.77,3.388 -4.312,3.388 h -1.771 v 3.619 h 6.314 v 22.176 c 0,3.85 -1.463,6.083 -6.314,6.083 V 0 h 20.79 v -2.772 c -6.853,0 -8.008,-1.771 -8.008,-6.776 z" style="" id="path71"/><path d="m 81.829875,-30.8 h 10.472 v -3.85 h -10.472 v -6.16 h -2.618 c -2.387,3.003 -5.236,6.391 -9.625,7.931 v 2.079 h 5.775 v 24.871 c 0,4.697 2.156,6.776 7.238,6.776 3.234,0 6.699,-0.77 10.087,-1.309 v -3.773 c -1.386,0.231 -3.927,0.385 -5.467,0.385 -4.543,0 -5.39,-1.078 -5.39,-4.62 z" style="" id="path73"/><path d="m 130.0315,-24.332 c 0,-8.162 -5.005,-11.165 -10.549,-11.165 -4.62,0 -7.931,1.463 -12.782,5.775 v -23.793 h -1.925 l -10.318,3.542 v 1.771 l 5.775,3.234 v 36.036 c 0,3.234 -1.232,6.16 -5.775,6.16 V 0 h 18.403 v -2.772 c -4.543,0 -6.16,-2.002 -6.16,-6.699 v -17.325 c 2.849,-2.233 6.16,-3.542 9.394,-3.542 4.466,0 7.469,2.849 7.469,7.546 v 14.476 c 0,3.08 -1.694,5.544 -5.775,5.544 V 0 h 17.864 v -2.772 c -3.234,0 -5.621,-1.771 -5.621,-5.929 z" style="" id="path75"/></g>
</g></g><g transform="scale(2.5835866,2.5834802)" id="g64"/><g transform="matrix(2.5835866,0,0,2.5834802,1940.2736,2333.1245)" id="g66"><g id="g68"><g aria-label="root" transform="translate(0,68.890625)" style="font-variant:normal;font-weight:normal;font-size:77px;font-family:'Plantin MT Std';-inkscape-font-specification:PlantinMTStd-Regular;writing-mode:lr-tb;fill:#000000;fill-opacity:1;fill-rule:nonzero;stroke:none" id="text72"><path d="m 13.86,-23.716 c 3.08,-4.389 4.466,-5.698 6.314,-5.698 2.541,0 3.157,3.619 5.775,3.619 2.387,0 3.157,-4.62 3.157,-5.005 0,-1.54 -2.31,-4.389 -5.698,-4.389 -4.004,0 -5.929,1.617 -9.394,7.315 H 13.86 v -7.623 h -1.925 l -10.241,4.158 v 1.771 l 5.698,2.849 v 18.018 c 0,4.389 -2.618,5.929 -5.698,5.929 V 0 h 20.02 v -2.772 c -6.776,0 -7.854,-1.617 -7.854,-7.392 z" style="" id="path79"/><path d="m 32.186,-17.556 c 0,10.01 8.085,18.403 17.787,18.403 9.856,0 17.325,-8.008 17.325,-18.48 0,-10.472 -7.392,-17.864 -17.941,-17.864 -9.548,0 -17.171,7.931 -17.171,17.941 z m 7.315,-2.926 c 0,-8.932 3.773,-12.166 9.548,-12.166 8.701,0 11.319,13.09 11.319,19.712 0,6.699 -3.696,10.934 -9.702,10.934 -7.931,0 -11.165,-11.627 -11.165,-18.48 z" style="" id="path81"/><path d="m 73.90475,-17.556 c 0,10.01 8.085,18.403 17.787,18.403 9.856,0 17.325,-8.008 17.325,-18.48 0,-10.472 -7.392,-17.864 -17.941,-17.864 -9.548,0 -17.171,7.931 -17.171,17.941 z m 7.315,-2.926 c 0,-8.932 3.773,-12.166 9.548,-12.166 8.701,0 11.319,13.09 11.319,19.712 0,6.699 -3.696,10.934 -9.702,10.934 -7.931,0 -11.165,-11.627 -11.165,-18.48 z" style="" id="path83"/><path d="m 126.0955,-30.8 h 10.472 v -3.85 h -10.472 v -6.16 h -2.618 c -2.387,3.003 -5.236,6.391 -9.625,7.931 v 2.079 h 5.775 v 24.871 c 0,4.697 2.156,6.776 7.238,6.776 3.234,0 6.699,-0.77 10.087,-1.309 v -3.773 c -1.386,0.231 -3.927,0.385 -5.467,0.385 -4.543,0 -5.39,-1.078 -5.39,-4.62 z" style="" id="path85"/></g>
</g></g><g transform="scale(2.5835866,2.5834802)" id="g74"><path id="path76" style="fill:#000000;fill-opacity:1;fill-rule:evenodd;stroke:#000000;stroke-width:5;stroke-linecap:butt;stroke-linejoin:bevel;stroke-miterlimit:10;stroke-dasharray:none;stroke-opacity:1" d="m 630,1019 -30,15 30,15 -6,-15 z" inkscape:connector-curvature="0"/><path id="path78" style="fill:none;stroke:#000000;stroke-width:5;stroke-linecap:butt;stroke-linejoin:bevel;stroke-miterlimit:10;stroke-dasharray:none;stroke-opacity:1" d="M 600,1034 H 725" inkscape:connector-curvature="0"/><path id="path80" style="fill:#000000;fill-opacity:1;fill-rule:evenodd;stroke:#000000;stroke-width:5;stroke-linecap:butt;stroke-linejoin:bevel;stroke-miterlimit:10;stroke-dasharray:none;stroke-opacity:1" d="m 630,1099 -30,15 30,15 -6,-15 z" inkscape:connector-curvature="0"/><path id="path82" style="fill:none;stroke:#000000;stroke-width:5;stroke-linecap:butt;stroke-linejoin:bevel;stroke-miterlimit:10;stroke-dasharray:none;stroke-opacity:1" d="M 600,1114 H 725" inkscape:connector-curvature="0"/><path id="path84" style="fill:#000000;fill-opacity:1;fill-rule:evenodd;stroke:#000000;stroke-width:5;stroke-linecap:butt;stroke-linejoin:bevel;stroke-miterlimit:10;stroke-dasharray:none;stroke-opacity:1" d="m 630,939 -30,15 30,15 -6,-15 z" inkscape:connector-curvature="0"/><path id="path86" style="fill:none;stroke:#000000;stroke-width:5;stroke-linecap:butt;stroke-linejoin:bevel;stroke-miterlimit:10;stroke-dasharray:none;stroke-opacity:1" d="M 600,954 H 725" inkscape:connector-curvature="0"/><g id="g88"><g aria-label="&#339;" transform="translate(529,954)" style="font-variant:normal;font-weight:normal;font-size:128px;font-family:'Opus Std';-inkscape-font-specification:OpusStd;writing-mode:lr-tb;fill:#000000;fill-opacity:1;fill-rule:nonzero;stroke:none" id="text92"><path d="m 14.336,16.64 c 13.184,0 29.44,-11.008 29.44,-22.272 0,-6.784 -6.016,-11.136 -14.592,-11.136 C 16.256,-16.768 0,-6.016 0,5.504 0,12.544 6.272,16.64 14.336,16.64 Z" style="" id="path88"/></g>
</g><g id="g94"><g aria-label="&#339;" transform="translate(529,1034)" style="font-variant:normal;font-weight:normal;font-size:128px;font-family:'Opus Std';-inkscape-font-specification:OpusStd;writing-mode:lr-tb;fill:#000000;fill-opacity:1;fill-rule:nonzero;stroke:none" id="text98"><path d="m 14.336,16.64 c 13.184,0 29.44,-11.008 29.44,-22.272 0,-6.784 -6.016,-11.136 -14.592,-11.136 C 16.256,-16.768 0,-6.016 0,5.504 0,12.544 6.272,16.64 14.336,16.64 Z" style="" id="path91"/></g>
</g><g id="g100"><g aria-label="&#339;" transform="translate(529,1114)" style="font-variant:normal;font-weight:normal;font-size:128px;font-family:'Opus Std';-inkscape-font-specification:OpusStd;writing-mode:lr-tb;fill:#000000;fill-opacity:1;fill-rule:nonzero;stroke:none" id="text104"><path d="m 14.336,16.64 c 13.184,0 29.44,-11.008 29.44,-22.272 0,-6.784 -6.016,-11.136 -14.592,-11.136 C 16.256,-16.768 0,-6.016 0,5.504 0,12.544 6.272,16.64 14.336,16.64 Z" style="" id="path94"/></g>
</g></g></g></g></g></svg>