<svg xmlns:dc="http://purl.org/dc/elements/1.1/" xmlns:cc="http://creativecommons.org/ns#" xmlns:rdf="http://www.w3.org/1999/02/22-rdf-syntax-ns#" xmlns:svg="http://www.w3.org/2000/svg" xmlns="http://www.w3.org/2000/svg" xmlns:sodipodi="http://sodipodi.sourceforge.net/DTD/sodipodi-0.dtd" xmlns:inkscape="http://www.inkscape.org/namespaces/inkscape" viewBox="0 0 238.41336 122.94678" height="184.42017" width="357.62004" xml:space="preserve" id="svg2" version="1.1" sodipodi:docname="example_13-12.svg" inkscape:version="0.92.4 (5da689c313, 2019-01-14)" viewbox="0 0 357.62004 184.42017"><sodipodi:namedview pagecolor="#ffffff" bordercolor="#666666" borderopacity="1" objecttolerance="10" gridtolerance="10" guidetolerance="10" inkscape:pageopacity="0" inkscape:pageshadow="2" inkscape:window-width="640" inkscape:window-height="480" id="namedview100" showgrid="false" inkscape:zoom="0.22348485" inkscape:cx="336.69301" inkscape:cy="-327.13543" inkscape:window-x="0" inkscape:window-y="0" inkscape:window-maximized="0" inkscape:current-layer="svg2"/><metadata id="metadata8"><rdf:RDF><cc:Work rdf:about=""><dc:format>image/svg+xml</dc:format><dc:type rdf:resource="http://purl.org/dc/dcmitype/StillImage"/></cc:Work></rdf:RDF></metadata><defs id="defs6"/><g transform="matrix(1.3333333,0,0,-1.3333333,-71.306988,978.08221)" id="g10"><g transform="matrix(0.06,0,0,-0.06,0,792)" id="g12"><g id="g14"><g id="g16"/></g><g id="g18"><g id="g20"/><g transform="scale(2.5835866,2.5834802)" id="g22"><path id="path24" style="fill:none;stroke:#000000;stroke-width:5;stroke-linecap:butt;stroke-linejoin:bevel;stroke-miterlimit:10;stroke-dasharray:none;stroke-opacity:1" d="M 1479,529 V 657" inkscape:connector-curvature="0"/><path id="path26" style="fill:none;stroke:#000000;stroke-width:5;stroke-linecap:butt;stroke-linejoin:bevel;stroke-miterlimit:10;stroke-dasharray:none;stroke-opacity:1" d="M 1496,529 V 657" inkscape:connector-curvature="0"/></g><g transform="matrix(2.5835866,0,0,2.5834802,658.81459,1421.8826)" id="g28"><g id="g30"/></g><g transform="scale(2.5835866,2.5834802)" id="g32"><path id="path34" style="fill:none;stroke:#000000;stroke-width:3;stroke-linecap:butt;stroke-linejoin:bevel;stroke-miterlimit:10;stroke-dasharray:none;stroke-opacity:1" d="M 345,657 H 1498" inkscape:connector-curvature="0"/><path id="path36" style="fill:none;stroke:#000000;stroke-width:3;stroke-linecap:butt;stroke-linejoin:bevel;stroke-miterlimit:10;stroke-dasharray:none;stroke-opacity:1" d="M 345,625 H 1498" inkscape:connector-curvature="0"/><path id="path38" style="fill:none;stroke:#000000;stroke-width:3;stroke-linecap:butt;stroke-linejoin:bevel;stroke-miterlimit:10;stroke-dasharray:none;stroke-opacity:1" d="M 345,593 H 1498" inkscape:connector-curvature="0"/><path id="path40" style="fill:none;stroke:#000000;stroke-width:3;stroke-linecap:butt;stroke-linejoin:bevel;stroke-miterlimit:10;stroke-dasharray:none;stroke-opacity:1" d="M 345,561 H 1498" inkscape:connector-curvature="0"/><path id="path42" style="fill:none;stroke:#000000;stroke-width:3;stroke-linecap:butt;stroke-linejoin:bevel;stroke-miterlimit:10;stroke-dasharray:none;stroke-opacity:1" d="M 345,529 H 1498" inkscape:connector-curvature="0"/><g id="g44"><g aria-label="?" transform="translate(369,561)" style="font-variant:normal;font-weight:normal;font-size:128px;font-family:'Opus Std';-inkscape-font-specification:OpusStd;writing-mode:lr-tb;fill:#000000;fill-opacity:1;fill-rule:nonzero;stroke:none" id="text48"><path d="M 1.152,70.656 C 1.28,72.576 2.56,73.6 5.248,73.6 15.744,73.6 44.928,59.136 57.216,39.424 67.072,23.808 69.888,15.744 69.888,5.12 69.888,-11.904 62.08,-32.512 32,-32.512 c -16.384,0 -31.232,11.52 -31.232,26.624 0,9.856 5.248,18.304 13.312,18.304 8.064,0 13.568,-6.144 13.568,-14.208 0,-5.76 -4.352,-11.008 -9.984,-11.008 -5.248,0 -9.216,4.096 -8.832,4.096 -0.64,0 -0.896,-0.64 -0.896,-2.048 0,-8.96 11.264,-17.664 21.632,-17.664 14.592,0 23.808,12.16 23.808,28.416 0,20.224 -11.776,42.624 -30.592,59.52 C 17.792,64 10.496,67.712 1.152,70.656 Z M 80.64,-16 c 0,3.584 2.816,6.4 6.4,6.4 3.584,0 6.4,-2.816 6.4,-6.4 0,-3.584 -2.816,-6.4 -6.4,-6.4 -3.584,0 -6.4,2.816 -6.4,6.4 z m 0,31.872 c 0,3.584 2.816,6.4 6.4,6.4 3.584,0 6.4,-2.816 6.4,-6.4 0,-3.584 -2.816,-6.4 -6.4,-6.4 -3.584,0 -6.4,2.816 -6.4,6.4 z" style="" id="path102"/></g>
</g></g><g transform="matrix(2.5835866,0,0,2.5834802,1312.462,2124.3874)" id="g50"><g id="g52"><g aria-label="root" transform="translate(48.75,60.671875)" style="font-variant:normal;font-weight:normal;font-size:65px;font-family:'Times New Roman';-inkscape-font-specification:TimesNewRomanPSMT;writing-mode:lr-tb;fill:#000000;fill-opacity:1;fill-rule:nonzero;stroke:none" id="text56"><path d="m 10.537109,-29.929199 v 6.538086 q 3.649903,-6.538086 7.490235,-6.538086 1.745605,0 2.888183,1.079101 1.142578,1.047364 1.142578,2.443848 0,1.237793 -0.825195,2.094727 -0.825195,0.856933 -1.967773,0.856933 -1.11084,0 -2.507325,-1.079101 -1.364746,-1.11084 -2.031249,-1.11084 -0.57129,0 -1.237793,0.634765 -1.428223,1.30127 -2.951661,4.284668 v 13.9331058 q 0,2.4121094 0.603028,3.6499024 0.412597,0.8569335 1.459961,1.4282226 1.047363,0.5712891 3.015136,0.5712891 V 0 H 0.72998047 v -1.1425781 q 2.22167973,0 3.30078123,-0.6982422 0.793457,-0.5078125 1.1108399,-1.6186524 Q 5.300293,-3.9990234 5.300293,-6.5380859 V -17.805176 q 0,-5.078125 -0.222168,-6.030273 -0.1904297,-0.983887 -0.7617188,-1.428223 -0.5395507,-0.444336 -1.364746,-0.444336 -0.9838868,0 -2.22167973,0.476074 l -0.31738281,-1.142578 8.79150394,-3.554687 z" style="" id="path105"/><path d="m 37.890625,-29.929199 q 6.601562,0 10.600586,5.014648 3.395996,4.284668 3.395996,9.838867 0,3.903809 -1.872559,7.9028324 -1.872558,3.9990235 -5.173339,6.0302735 -3.269043,2.03124998 -7.299805,2.03124998 -6.569824,0 -10.441895,-5.23681638 -3.269043,-4.4116211 -3.269043,-9.9023435 0,-3.999024 1.967774,-7.934571 1.999512,-3.967285 5.236816,-5.839843 3.237305,-1.904297 6.855469,-1.904297 z m -0.983887,2.062988 q -1.682129,0 -3.395996,1.015625 -1.682129,0.983887 -2.729492,3.491211 -1.047363,2.507324 -1.047363,6.442871 0,6.347656 2.507324,10.9497071 2.539062,4.6020508 6.665039,4.6020508 3.078613,0 5.078125,-2.5390625 1.999512,-2.5390625 1.999512,-8.7280274 0,-7.744141 -3.33252,-12.1875 -2.253418,-3.046875 -5.744629,-3.046875 z" style="" id="path107"/><path d="m 70.390625,-29.929199 q 6.601562,0 10.600586,5.014648 3.395996,4.284668 3.395996,9.838867 0,3.903809 -1.872559,7.9028324 -1.872558,3.9990235 -5.173339,6.0302735 -3.269043,2.03124998 -7.299805,2.03124998 -6.569824,0 -10.441895,-5.23681638 -3.269043,-4.4116211 -3.269043,-9.9023435 0,-3.999024 1.967774,-7.934571 1.999512,-3.967285 5.236816,-5.839843 3.237305,-1.904297 6.855469,-1.904297 z m -0.983887,2.062988 q -1.682129,0 -3.395996,1.015625 -1.682129,0.983887 -2.729492,3.491211 -1.047363,2.507324 -1.047363,6.442871 0,6.347656 2.507324,10.9497071 2.539062,4.6020508 6.665039,4.6020508 3.078613,0 5.078125,-2.5390625 1.999512,-2.5390625 1.999512,-8.7280274 0,-7.744141 -3.33252,-12.1875 -2.253418,-3.046875 -5.744629,-3.046875 z" style="" id="path109"/><path d="m 97.114258,-38.625488 v 9.553222 h 6.791992 v 2.22168 h -6.791992 v 18.8525391 q 0,2.8247071 0.793457,3.8085938 0.825195,0.9838867 2.094725,0.9838867 1.04736,0 2.03125,-0.6347656 0.98389,-0.6665039 1.52344,-1.9360352 h 1.23779 q -1.11084,3.1103516 -3.14209,4.6972656 -2.031248,1.55517582 -4.189451,1.55517582 -1.459961,0 -2.856445,-0.79345703 Q 93.210449,-1.1425781 92.543945,-2.6342773 91.877441,-4.1577148 91.877441,-7.2998047 V -26.850586 h -4.60205 v -1.047363 q 1.745605,-0.698242 3.554687,-2.348633 1.84082,-1.682129 3.269043,-3.967285 0.729981,-1.206055 2.03125,-4.411621 z" style="" id="path111"/></g>
</g><g id="g58"><g aria-label="position" transform="translate(0,135.67187)" style="font-variant:normal;font-weight:normal;font-size:65px;font-family:'Times New Roman';-inkscape-font-specification:TimesNewRomanPSMT;writing-mode:lr-tb;fill:#000000;fill-opacity:1;fill-rule:nonzero;stroke:none" id="text62"><path d="m -0.06347656,-26.184082 8.95019536,-3.618164 h 1.2060542 v 6.791992 q 2.253418,-3.840332 4.506836,-5.363769 2.285157,-1.555176 4.792481,-1.555176 4.379883,0 7.299805,3.427734 3.586425,4.189453 3.586425,10.917969 0,7.5219726 -4.316406,12.4414062 -3.554687,4.03076168 -8.950195,4.03076168 -2.348633,0 -4.0625,-0.66650391 -1.269531,-0.47607422 -2.856446,-1.90429687 v 8.8549805 q 0,2.9833984 0.349122,3.7768554 0.380859,0.825195 1.269531,1.30127 0.92041,0.476074 3.300781,0.476074 v 1.174316 H -0.22216797 V 12.727051 H 0.57128906 Q 2.3168945,12.758789 3.5546875,12.060547 4.1577148,11.711426 4.4750977,10.917969 4.8242187,10.15625 4.8242187,6.9824219 V -20.50293 q 0,-2.824707 -0.2539062,-3.586425 -0.2539063,-0.761719 -0.8251953,-1.142579 -0.5395508,-0.380859 -1.4916992,-0.380859 -0.7617188,0 -1.93603519,0.444336 z m 10.15624956,5.046387 v 10.854492 q 0,3.5229491 0.285645,4.6337889 0.444336,1.8408203 2.158203,3.2373047 1.745606,1.3964844 4.379883,1.3964844 3.173828,0 5.141601,-2.4755859 2.570801,-3.2373047 2.570801,-9.1088871 0,-6.665039 -2.919922,-10.251464 -2.03125,-2.475586 -4.824218,-2.475586 -1.523438,0 -3.015137,0.761718 -1.142578,0.571289 -3.776856,3.427735 z" style="" id="path114"/><path d="m 48.75,-29.929199 q 6.601562,0 10.600586,5.014648 3.395996,4.284668 3.395996,9.838867 0,3.903809 -1.872559,7.9028324 -1.872558,3.9990235 -5.173339,6.0302735 -3.269043,2.03124998 -7.299805,2.03124998 -6.569824,0 -10.441895,-5.23681638 -3.269043,-4.4116211 -3.269043,-9.9023435 0,-3.999024 1.967774,-7.934571 1.999512,-3.967285 5.236816,-5.839843 3.237305,-1.904297 6.855469,-1.904297 z m -0.983887,2.062988 q -1.682129,0 -3.395996,1.015625 -1.682129,0.983887 -2.729492,3.491211 -1.047363,2.507324 -1.047363,6.442871 0,6.347656 2.507324,10.9497071 2.539062,4.6020508 6.665039,4.6020508 3.078613,0 5.078125,-2.5390625 1.999512,-2.5390625 1.999512,-8.7280274 0,-7.744141 -3.33252,-12.1875 -2.253418,-3.046875 -5.744629,-3.046875 z" style="" id="path116"/><path d="m 85.820312,-29.929199 v 9.902344 h -1.047363 q -1.206054,-4.665528 -3.110351,-6.347657 -1.872559,-1.682129 -4.792481,-1.682129 -2.22168,0 -3.586426,1.174317 -1.364746,1.174316 -1.364746,2.602539 0,1.777344 1.015625,3.046875 0.983887,1.301269 3.999024,2.76123 l 4.633789,2.253418 q 6.442871,3.14209 6.442871,8.2836917 0,3.9672851 -3.015137,6.4111328 -2.983398,2.41210938 -6.696777,2.41210938 -2.666016,0 -6.09375,-0.95214844 -1.047363,-0.31738282 -1.713867,-0.31738282 -0.729981,0 -1.142578,0.82519532 H 68.300781 V -9.934082 h 1.047364 q 0.888671,4.4433593 3.395996,6.6967773 2.507324,2.25341798 5.617675,2.25341798 2.189942,0 3.554688,-1.26953128 1.396484,-1.3012695 1.396484,-3.1103515 0,-2.1899414 -1.555176,-3.6816407 -1.523437,-1.4916988 -6.125488,-3.7768558 -4.602051,-2.285156 -6.030273,-4.125976 -1.428223,-1.809082 -1.428223,-4.570313 0,-3.586425 2.443848,-5.998535 2.475586,-2.412109 6.379394,-2.412109 1.713867,0 4.157715,0.72998 1.618652,0.476074 2.158203,0.476074 0.507813,0 0.793457,-0.222167 0.285645,-0.222168 0.666504,-0.983887 z" style="" id="path118"/><path d="m 99.70752,-45.131836 q 1.33301,0 2.25342,0.952149 0.95215,0.92041 0.95215,2.253417 0,1.333008 -0.95215,2.285157 -0.92041,0.952148 -2.25342,0.952148 -1.333008,0 -2.285157,-0.952148 -0.952148,-0.952149 -0.952148,-2.285157 0,-1.333007 0.92041,-2.253417 0.952148,-0.952149 2.316895,-0.952149 z m 2.63428,15.202637 v 23.3593748 q 0,2.7294922 0.38086,3.6499023 0.41259,0.8886719 1.17431,1.3330078 0.79346,0.444336 2.85645,0.444336 V 0 H 92.629883 v -1.1425781 q 2.126465,0 2.856445,-0.4125977 0.729981,-0.4125976 1.142578,-1.3647461 0.444336,-0.9521484 0.444336,-3.6499023 V -17.773437 q 0,-4.729004 -0.285644,-6.125489 -0.222168,-1.015625 -0.698243,-1.396484 -0.476074,-0.412598 -1.301269,-0.412598 -0.888672,0 -2.158203,0.476074 l -0.444336,-1.142578 8.759763,-3.554687 z" style="" id="path120"/><path d="m 118.80175,-38.625488 v 9.553222 h 6.79199 v 2.22168 h -6.79199 v 18.8525391 q 0,2.8247071 0.79346,3.8085938 0.82519,0.9838867 2.09472,0.9838867 1.04737,0 2.03125,-0.6347656 0.98389,-0.6665039 1.52344,-1.9360352 h 1.23779 q -1.11084,3.1103516 -3.14209,4.6972656 -2.03125,1.55517582 -4.18945,1.55517582 -1.45996,0 -2.85644,-0.79345703 -1.39649,-0.82519529 -2.06299,-2.31689449 -0.66651,-1.5234375 -0.66651,-4.6655274 V -26.850586 h -4.60205 v -1.047363 q 1.74561,-0.698242 3.55469,-2.348633 1.84082,-1.682129 3.26904,-3.967285 0.72998,-1.206055 2.03125,-4.411621 z" style="" id="path122"/><path d="m 135.80127,-45.131836 q 1.33301,0 2.25342,0.952149 0.95215,0.92041 0.95215,2.253417 0,1.333008 -0.95215,2.285157 -0.92041,0.952148 -2.25342,0.952148 -1.33301,0 -2.28516,-0.952148 -0.95215,-0.952149 -0.95215,-2.285157 0,-1.333007 0.92041,-2.253417 0.95215,-0.952149 2.3169,-0.952149 z m 2.63428,15.202637 v 23.3593748 q 0,2.7294922 0.38086,3.6499023 0.41259,0.8886719 1.17431,1.3330078 0.79346,0.444336 2.85645,0.444336 V 0 h -14.12354 v -1.1425781 q 2.12647,0 2.85645,-0.4125977 0.72998,-0.4125976 1.14258,-1.3647461 0.44433,-0.9521484 0.44433,-3.6499023 V -17.773437 q 0,-4.729004 -0.28564,-6.125489 -0.22217,-1.015625 -0.69824,-1.396484 -0.47608,-0.412598 -1.30127,-0.412598 -0.88868,0 -2.15821,0.476074 l -0.44433,-1.142578 8.75976,-3.554687 z" style="" id="path124"/><path d="m 160.67187,-29.929199 q 6.60157,0 10.60059,5.014648 3.396,4.284668 3.396,9.838867 0,3.903809 -1.87256,7.9028324 -1.87256,3.9990235 -5.17334,6.0302735 -3.26904,2.03124998 -7.29981,2.03124998 -6.56982,0 -10.44189,-5.23681638 -3.26904,-4.4116211 -3.26904,-9.9023435 0,-3.999024 1.96777,-7.934571 1.99951,-3.967285 5.23682,-5.839843 3.2373,-1.904297 6.85546,-1.904297 z m -0.98388,2.062988 q -1.68213,0 -3.396,1.015625 -1.68213,0.983887 -2.72949,3.491211 -1.04736,2.507324 -1.04736,6.442871 0,6.347656 2.50732,10.9497071 2.53906,4.6020508 6.66504,4.6020508 3.07861,0 5.07812,-2.5390625 1.99952,-2.5390625 1.99952,-8.7280274 0,-7.744141 -3.33252,-12.1875 -2.25342,-3.046875 -5.74463,-3.046875 z" style="" id="path126"/><path d="m 187.42725,-23.771973 q 5.10986,-6.157226 9.74365,-6.157226 2.38037,0 4.09424,1.206054 1.71386,1.174317 2.72949,3.903809 0.69824,1.904297 0.69824,5.839844 v 12.4096678 q 0,2.7612304 0.44434,3.7451172 0.34912,0.793457 1.11084,1.2377929 0.79345,0.444336 2.88818,0.444336 V 0 h -14.37744 v -1.1425781 h 0.60303 q 2.03125,0 2.8247,-0.6030274 0.8252,-0.6347656 1.14258,-1.8408203 0.12695,-0.4760742 0.12695,-2.9833984 V -18.47168 q 0,-3.967285 -1.04736,-5.744629 -1.01562,-1.809082 -3.45947,-1.809082 -3.77686,0 -7.52197,4.125977 v 15.3295898 q 0,2.9516601 0.34912,3.6499023 0.44433,0.9204102 1.20605,1.3647461 0.79346,0.4125977 3.17383,0.4125977 V 0 h -14.37744 v -1.1425781 h 0.63476 q 2.22168,0 2.9834,-1.1108399 0.79346,-1.1425781 0.79346,-4.3164062 V -17.36084 q 0,-5.236816 -0.25391,-6.379394 -0.22216,-1.142578 -0.72998,-1.555176 -0.47607,-0.412598 -1.30127,-0.412598 -0.88867,0 -2.12646,0.476074 l -0.47608,-1.142578 8.75977,-3.554687 h 1.36475 z" style="" id="path129"/></g>
</g></g><g transform="scale(2.5835866,2.5834802)" id="g64"/><g transform="matrix(2.5835866,0,0,2.5834802,1547.5684,1921.5842)" id="g66"><g id="g68"><g aria-label="5&#163;" transform="translate(0,58.59375)" style="font-variant:normal;font-weight:normal;font-size:74px;font-family:'Opus Roman Chords Std';-inkscape-font-specification:OpusRomanChordsStd;writing-mode:lr-tb;fill:#000000;fill-opacity:1;fill-rule:nonzero;stroke:none" id="text72"><path d="m 6.142,-65.86 -5.254,10.656 c 7.844,0.296 11.988,4.144 11.988,9.028 0,3.404 -2.886,6.068 -5.994,6.068 -1.924,0 -4.366,-1.998 -5.328,-1.998 -0.888,0 -1.554,0.666 -1.554,1.406 0,1.48 1.332,2.738 4.736,2.738 4.81,0 10.73,-3.848 10.73,-10.36 0,-5.328 -4.736,-9.62 -11.174,-10.434 l 1.85,-3.7 h 8.214 l 1.628,-3.404 z" style="" id="path132"/><path d="m 2.812,-21.83 c 1.406,-2.22 3.182,-3.404 5.18,-3.404 2.59,0 4.514,1.924 4.514,4.662 0,3.256 -2.59,5.772 -6.29,6.438 v 0.592 h 0.74 c 2.146,0 4.292,0.962 5.476,2.072 0.37,0.444 0.74,0.962 1.11,1.776 0.518,0.962 0.666,1.998 0.666,3.034 0,3.034 -2.294,5.402 -5.106,5.402 -0.518,0 -1.036,-0.074 -1.48,-0.148 C 6.956,-1.702 4.81,-2.886 4.292,-2.96 4.07,-3.108 3.626,-3.182 3.256,-3.182 c -0.888,0 -1.554,0.666 -1.554,1.48 0,1.11 0.962,2.22 4.736,2.22 3.774,0 6.512,-1.184 8.584,-3.404 1.406,-1.702 2.22,-3.774 2.22,-6.142 0,-3.404 -1.776,-5.772 -5.106,-7.252 2.516,-2.072 3.7,-4.144 3.7,-6.142 0,-1.258 -0.444,-2.294 -1.332,-3.33 -1.11,-1.48 -2.738,-2.22 -4.958,-2.22 -3.552,0 -5.92,2.072 -7.4,5.846 z" style="" id="path134"/></g>
</g></g><g transform="scale(2.5835866,2.5834802)" id="g74"/><g transform="matrix(2.5835866,0,0,2.5834802,2066.8693,2124.3874)" id="g76"><g id="g78"><g aria-label="first" transform="translate(65,60.671875)" style="font-variant:normal;font-weight:normal;font-size:65px;font-family:'Times New Roman';-inkscape-font-specification:TimesNewRomanPSMT;writing-mode:lr-tb;fill:#000000;fill-opacity:1;fill-rule:nonzero;stroke:none" id="text82"><path d="m 13.393555,-26.787109 v 19.1064449 q 0,4.0625 0.888672,5.1416016 1.174316,1.3964844 3.142089,1.3964844 h 2.634278 V 0 H 2.6977539 v -1.1425781 h 1.3012695 q 1.2695313,0 2.3168946,-0.6347656 1.0473632,-0.6347657 1.4282226,-1.7138672 0.4125977,-1.0791016 0.4125977,-4.1894532 V -26.787109 H 2.5073242 v -2.285157 h 5.6494141 v -1.904296 q 0,-4.348145 1.3964844,-7.363282 1.3964843,-3.015136 4.2529293,-4.855957 2.888184,-1.872558 6.47461,-1.872558 3.332519,0 6.125488,2.158203 1.84082,1.428222 1.84082,3.205566 0,0.952149 -0.825195,1.809082 -0.825195,0.825196 -1.777344,0.825196 -0.72998,0 -1.555176,-0.507813 -0.793457,-0.539551 -1.967773,-2.253418 -1.174316,-1.745605 -2.158203,-2.348633 -0.983887,-0.603027 -2.189942,-0.603027 -1.45996,0 -2.475585,0.793457 -1.015625,0.761719 -1.459961,2.412109 -0.444336,1.618653 -0.444336,8.410645 v 2.094726 h 7.490234 v 2.285157 z" style="" id="path137"/><path d="m 31.066895,-45.131836 q 1.333007,0 2.253417,0.952149 0.952149,0.92041 0.952149,2.253417 0,1.333008 -0.952149,2.285157 -0.92041,0.952148 -2.253417,0.952148 -1.333008,0 -2.285157,-0.952148 -0.952148,-0.952149 -0.952148,-2.285157 0,-1.333007 0.92041,-2.253417 0.952148,-0.952149 2.316895,-0.952149 z m 2.634277,15.202637 v 23.3593748 q 0,2.7294922 0.380859,3.6499023 0.412598,0.8886719 1.174317,1.3330078 0.793457,0.444336 2.856445,0.444336 V 0 H 23.989258 v -1.1425781 q 2.126465,0 2.856445,-0.4125977 0.729981,-0.4125976 1.142578,-1.3647461 0.444336,-0.9521484 0.444336,-3.6499023 V -17.773437 q 0,-4.729004 -0.285644,-6.125489 -0.222168,-1.015625 -0.698243,-1.396484 -0.476074,-0.412598 -1.301269,-0.412598 -0.888672,0 -2.158203,0.476074 l -0.444336,-1.142578 8.759765,-3.554687 z" style="" id="path139"/><path d="m 50.224609,-29.929199 v 6.538086 q 3.649903,-6.538086 7.490235,-6.538086 1.745605,0 2.888183,1.079101 1.142578,1.047364 1.142578,2.443848 0,1.237793 -0.825195,2.094727 -0.825195,0.856933 -1.967773,0.856933 -1.11084,0 -2.507325,-1.079101 -1.364746,-1.11084 -2.03125,-1.11084 -0.571289,0 -1.237792,0.634765 -1.428223,1.30127 -2.951661,4.284668 v 13.9331058 q 0,2.4121094 0.603028,3.6499024 0.412597,0.8569335 1.459961,1.4282226 1.047363,0.5712891 3.015136,0.5712891 V 0 H 40.41748 v -1.1425781 q 2.22168,0 3.300782,-0.6982422 0.793457,-0.5078125 1.11084,-1.6186524 0.158691,-0.5395507 0.158691,-3.0786132 V -17.805176 q 0,-5.078125 -0.222168,-6.030273 -0.19043,-0.983887 -0.761719,-1.428223 -0.539551,-0.444336 -1.364746,-0.444336 -0.983887,0 -2.22168,0.476074 l -0.317382,-1.142578 8.791504,-3.554687 z" style="" id="path141"/><path d="m 82.148437,-29.929199 v 9.902344 h -1.047363 q -1.206054,-4.665528 -3.110351,-6.347657 -1.872559,-1.682129 -4.792481,-1.682129 -2.22168,0 -3.586426,1.174317 -1.364746,1.174316 -1.364746,2.602539 0,1.777344 1.015625,3.046875 0.983887,1.301269 3.999024,2.76123 l 4.633789,2.253418 q 6.442871,3.14209 6.442871,8.2836917 0,3.9672851 -3.015137,6.4111328 -2.983398,2.41210938 -6.696777,2.41210938 -2.666016,0 -6.09375,-0.95214844 -1.047363,-0.31738282 -1.713867,-0.31738282 -0.729981,0 -1.142578,0.82519532 H 64.628906 V -9.934082 h 1.047364 q 0.888671,4.4433593 3.395996,6.6967773 2.507324,2.25341798 5.617675,2.25341798 2.189942,0 3.554688,-1.26953128 1.396484,-1.3012695 1.396484,-3.1103515 0,-2.1899414 -1.555176,-3.6816407 -1.523437,-1.4916988 -6.125488,-3.7768558 -4.602051,-2.285156 -6.030273,-4.125976 -1.428223,-1.809082 -1.428223,-4.570313 0,-3.586425 2.443848,-5.998535 2.475586,-2.412109 6.379394,-2.412109 1.713867,0 4.157715,0.72998 1.618652,0.476074 2.158203,0.476074 0.507813,0 0.793457,-0.222167 0.285645,-0.222168 0.666504,-0.983887 z" style="" id="path143"/><path d="m 97.083008,-38.625488 v 9.553222 H 103.875 v 2.22168 h -6.791992 v 18.8525391 q 0,2.8247071 0.793457,3.8085938 0.825195,0.9838867 2.094726,0.9838867 1.047359,0 2.031249,-0.6347656 0.98389,-0.6665039 1.52344,-1.9360352 h 1.23779 q -1.11084,3.1103516 -3.14209,4.6972656 -2.031248,1.55517582 -4.189451,1.55517582 -1.459961,0 -2.856445,-0.79345703 Q 93.179199,-1.1425781 92.512695,-2.6342773 91.846191,-4.1577148 91.846191,-7.2998047 V -26.850586 h -4.60205 v -1.047363 q 1.745605,-0.698242 3.554687,-2.348633 1.84082,-1.682129 3.269043,-3.967285 0.729981,-1.206055 2.03125,-4.411621 z" style="" id="path145"/></g>
</g><g id="g84"><g aria-label="inversion" transform="translate(0,135.67187)" style="font-variant:normal;font-weight:normal;font-size:65px;font-family:'Times New Roman';-inkscape-font-specification:TimesNewRomanPSMT;writing-mode:lr-tb;fill:#000000;fill-opacity:1;fill-rule:nonzero;stroke:none" id="text88"><path d="m 9.4262695,-45.131836 q 1.3330075,0 2.2534185,0.952149 0.952148,0.92041 0.952148,2.253417 0,1.333008 -0.952148,2.285157 -0.920411,0.952148 -2.2534185,0.952148 -1.3330078,0 -2.2851562,-0.952148 -0.9521485,-0.952149 -0.9521485,-2.285157 0,-1.333007 0.9204102,-2.253417 0.9521484,-0.952149 2.3168945,-0.952149 z m 2.6342775,15.202637 v 23.3593748 q 0,2.7294922 0.380859,3.6499023 0.412598,0.8886719 1.174317,1.3330078 0.793457,0.444336 2.856445,0.444336 V 0 H 2.3486328 v -1.1425781 q 2.1264649,0 2.8564453,-0.4125977 0.7299805,-0.4125976 1.1425781,-1.3647461 0.444336,-0.9521484 0.444336,-3.6499023 V -17.773437 q 0,-4.729004 -0.2856445,-6.125489 -0.222168,-1.015625 -0.6982422,-1.396484 -0.4760743,-0.412598 -1.3012696,-0.412598 -0.8886718,0 -2.1582031,0.476074 l -0.4443359,-1.142578 8.7597661,-3.554687 z" style="" id="path148"/><path d="m 28.552246,-23.771973 q 5.109863,-6.157226 9.743652,-6.157226 2.380372,0 4.094239,1.206054 1.713867,1.174317 2.729492,3.903809 0.698242,1.904297 0.698242,5.839844 v 12.4096678 q 0,2.7612304 0.444336,3.7451172 0.349121,0.793457 1.11084,1.2377929 0.793457,0.444336 2.888183,0.444336 V 0 H 35.883789 v -1.1425781 h 0.603027 q 2.03125,0 2.824707,-0.6030274 0.825196,-0.6347656 1.142579,-1.8408203 0.126953,-0.4760742 0.126953,-2.9833984 V -18.47168 q 0,-3.967285 -1.047364,-5.744629 -1.015625,-1.809082 -3.459472,-1.809082 -3.776856,0 -7.521973,4.125977 v 15.3295898 q 0,2.9516601 0.349121,3.6499023 0.444336,0.9204102 1.206055,1.3647461 0.793457,0.4125977 3.173828,0.4125977 V 0 H 18.903809 v -1.1425781 h 0.634765 q 2.22168,0 2.983399,-1.1108399 0.793457,-1.1425781 0.793457,-4.3164062 V -17.36084 q 0,-5.236816 -0.253907,-6.379394 -0.222168,-1.142578 -0.72998,-1.555176 -0.476074,-0.412598 -1.30127,-0.412598 -0.888671,0 -2.126464,0.476074 l -0.476075,-1.142578 8.759766,-3.554687 h 1.364746 z" style="" id="path151"/><path d="m 51.086426,-29.072266 h 13.679199 v 1.174317 h -0.888672 q -1.237793,0 -1.904297,0.603027 -0.634765,0.603027 -0.634765,1.618652 0,1.11084 0.666504,2.634278 l 6.760253,16.0595701 6.791993,-16.6625981 q 0.72998,-1.777343 0.72998,-2.697753 0,-0.444336 -0.253906,-0.729981 -0.349121,-0.476074 -0.888672,-0.634766 -0.539551,-0.190429 -2.189941,-0.190429 v -1.174317 h 9.489746 v 1.174317 q -1.650391,0.126953 -2.285157,0.666504 -1.110839,0.952148 -1.999511,3.173828 L 67.844238,0.88867188 H 66.542969 L 56.164551,-23.64502 q -0.698242,-1.713867 -1.333008,-2.443847 -0.634766,-0.761719 -1.618652,-1.269531 -0.539551,-0.285645 -2.126465,-0.539551 z" style="" id="path153"/><path d="m 89.96582,-18.122559 q -0.03174,6.47461 3.14209,10.1562504 3.173828,3.6816406 7.4585,3.6816406 2.85644,0 4.95117,-1.5551757 2.12646,-1.5869141 3.55469,-5.3955083 l 0.98388,0.634766 q -0.6665,4.3481446 -3.87207,7.9345704 -3.20556,3.55468748 -8.029783,3.55468748 -5.236817,0 -8.981934,-4.06249998 -3.713379,-4.0942383 -3.713379,-10.9814449 0,-7.458497 3.808594,-11.616211 3.840332,-4.189453 9.616699,-4.189453 4.887693,0 8.029783,3.237304 3.14209,3.205567 3.14209,8.601074 z m 0,-1.84082 h 13.45703 q -0.15869,-2.792969 -0.6665,-3.935547 -0.79346,-1.777344 -2.38037,-2.792969 -1.555179,-1.015625 -3.269046,-1.015625 -2.634278,0 -4.729004,2.062989 -2.062989,2.03125 -2.41211,5.681152 z" style="" id="path155"/><path d="m 122.42773,-29.929199 v 6.538086 q 3.6499,-6.538086 7.49023,-6.538086 1.74561,0 2.88818,1.079101 1.14258,1.047364 1.14258,2.443848 0,1.237793 -0.82519,2.094727 -0.8252,0.856933 -1.96778,0.856933 -1.11084,0 -2.50732,-1.079101 -1.36475,-1.11084 -2.03125,-1.11084 -0.57129,0 -1.23779,0.634765 -1.42823,1.30127 -2.95166,4.284668 v 13.9331058 q 0,2.4121094 0.60302,3.6499024 0.4126,0.8569335 1.45997,1.4282226 1.04736,0.5712891 3.01513,0.5712891 V 0 H 112.6206 v -1.1425781 q 2.22168,0 3.30078,-0.6982422 0.79346,-0.5078125 1.11084,-1.6186524 0.15869,-0.5395507 0.15869,-3.0786132 V -17.805176 q 0,-5.078125 -0.22217,-6.030273 -0.19043,-0.983887 -0.76172,-1.428223 -0.53955,-0.444336 -1.36474,-0.444336 -0.98389,0 -2.22168,0.476074 l -0.31738,-1.142578 8.7915,-3.554687 z" style="" id="path157"/><path d="m 154.35156,-29.929199 v 9.902344 h -1.04736 q -1.20606,-4.665528 -3.11035,-6.347657 -1.87256,-1.682129 -4.79248,-1.682129 -2.22168,0 -3.58643,1.174317 -1.36474,1.174316 -1.36474,2.602539 0,1.777344 1.01562,3.046875 0.98389,1.301269 3.99902,2.76123 l 4.63379,2.253418 q 6.44287,3.14209 6.44287,8.2836917 0,3.9672851 -3.01513,6.4111328 -2.9834,2.41210938 -6.69678,2.41210938 -2.66602,0 -6.09375,-0.95214844 -1.04736,-0.31738282 -1.71387,-0.31738282 -0.72998,0 -1.14258,0.82519532 h -1.04736 V -9.934082 h 1.04736 q 0.88868,4.4433593 3.396,6.6967773 2.50732,2.25341798 5.61768,2.25341798 2.18994,0 3.55468,-1.26953128 1.39649,-1.3012695 1.39649,-3.1103515 0,-2.1899414 -1.55518,-3.6816407 -1.52344,-1.4916988 -6.12549,-3.7768558 -4.60205,-2.285156 -6.03027,-4.125976 -1.42822,-1.809082 -1.42822,-4.570313 0,-3.586425 2.44385,-5.998535 2.47558,-2.412109 6.37939,-2.412109 1.71387,0 4.15772,0.72998 1.61865,0.476074 2.1582,0.476074 0.50781,0 0.79346,-0.222167 0.28564,-0.222168 0.6665,-0.983887 z" style="" id="path159"/><path d="m 168.23877,-45.131836 q 1.33301,0 2.25342,0.952149 0.95215,0.92041 0.95215,2.253417 0,1.333008 -0.95215,2.285157 -0.92041,0.952148 -2.25342,0.952148 -1.33301,0 -2.28516,-0.952148 -0.95215,-0.952149 -0.95215,-2.285157 0,-1.333007 0.92041,-2.253417 0.95215,-0.952149 2.3169,-0.952149 z m 2.63428,15.202637 v 23.3593748 q 0,2.7294922 0.38086,3.6499023 0.41259,0.8886719 1.17431,1.3330078 0.79346,0.444336 2.85645,0.444336 V 0 h -14.12354 v -1.1425781 q 2.12647,0 2.85645,-0.4125977 0.72998,-0.4125976 1.14258,-1.3647461 0.44433,-0.9521484 0.44433,-3.6499023 V -17.773437 q 0,-4.729004 -0.28564,-6.125489 -0.22217,-1.015625 -0.69824,-1.396484 -0.47608,-0.412598 -1.30127,-0.412598 -0.88868,0 -2.15821,0.476074 l -0.44433,-1.142578 8.75976,-3.554687 z" style="" id="path161"/><path d="m 193.10937,-29.929199 q 6.60157,0 10.60059,5.014648 3.396,4.284668 3.396,9.838867 0,3.903809 -1.87256,7.9028324 -1.87256,3.9990235 -5.17334,6.0302735 -3.26904,2.03124998 -7.29981,2.03124998 -6.56982,0 -10.44189,-5.23681638 -3.26904,-4.4116211 -3.26904,-9.9023435 0,-3.999024 1.96777,-7.934571 1.99951,-3.967285 5.23682,-5.839843 3.2373,-1.904297 6.85546,-1.904297 z m -0.98388,2.062988 q -1.68213,0 -3.396,1.015625 -1.68213,0.983887 -2.72949,3.491211 -1.04736,2.507324 -1.04736,6.442871 0,6.347656 2.50732,10.9497071 2.53906,4.6020508 6.66504,4.6020508 3.07861,0 5.07812,-2.5390625 1.99952,-2.5390625 1.99952,-8.7280274 0,-7.744141 -3.33252,-12.1875 -2.25342,-3.046875 -5.74463,-3.046875 z" style="" id="path163"/><path d="m 219.86475,-23.771973 q 5.10986,-6.157226 9.74365,-6.157226 2.38037,0 4.09424,1.206054 1.71386,1.174317 2.72949,3.903809 0.69824,1.904297 0.69824,5.839844 v 12.4096678 q 0,2.7612304 0.44434,3.7451172 0.34912,0.793457 1.11084,1.2377929 0.79345,0.444336 2.88818,0.444336 V 0 h -14.37744 v -1.1425781 h 0.60303 q 2.03125,0 2.8247,-0.6030274 0.8252,-0.6347656 1.14258,-1.8408203 0.12695,-0.4760742 0.12695,-2.9833984 V -18.47168 q 0,-3.967285 -1.04736,-5.744629 -1.01562,-1.809082 -3.45947,-1.809082 -3.77686,0 -7.52197,4.125977 v 15.3295898 q 0,2.9516601 0.34912,3.6499023 0.44433,0.9204102 1.20605,1.3647461 0.79346,0.4125977 3.17383,0.4125977 V 0 h -14.37744 v -1.1425781 h 0.63476 q 2.22168,0 2.9834,-1.1108399 0.79346,-1.1425781 0.79346,-4.3164062 V -17.36084 q 0,-5.236816 -0.25391,-6.379394 -0.22216,-1.142578 -0.72998,-1.555176 -0.47607,-0.412598 -1.30127,-0.412598 -0.88867,0 -2.12646,0.476074 l -0.47608,-1.142578 8.75977,-3.554687 h 1.36475 z" style="" id="path165"/></g>
</g></g><g transform="scale(2.5835866,2.5834802)" id="g90"/><g transform="matrix(2.5835866,0,0,2.5834802,2296.8085,1921.5842)" id="g92"><g id="g94"><g aria-label="6&#163;" transform="translate(0,58.59375)" style="font-variant:normal;font-weight:normal;font-size:74px;font-family:'Opus Roman Chords Std';-inkscape-font-specification:OpusRomanChordsStd;writing-mode:lr-tb;fill:#000000;fill-opacity:1;fill-rule:nonzero;stroke:none" id="text98"><path d="m 15.688,-66.452 c -2.96,0 -6.216,0.962 -9.99,4.44 C 2.146,-58.682 0,-54.168 0,-49.284 c 0,3.848 1.258,7.03 3.848,9.472 1.332,1.258 2.96,1.85 4.81,1.85 2.812,0 5.032,-1.184 6.66,-3.478 1.332,-1.85 1.998,-3.996 1.998,-6.29 0,-4.662 -3.034,-8.066 -6.882,-8.066 -1.924,0 -3.848,0.666 -5.772,1.998 0.814,-3.7 2.294,-6.216 4.514,-8.436 2.22,-2.22 4.144,-3.108 7.696,-3.478 v -0.74 z m -11.47,14.134 c 2.368,-1.48 3.182,-1.628 4.292,-1.628 3.33,0 5.254,3.848 5.254,8.436 0,4.144 -2.22,6.364 -4.514,6.364 -1.036,0 -1.85,-0.296 -2.516,-0.962 -1.924,-1.85 -2.886,-5.18 -2.886,-7.77 0,-1.11 0.074,-2.59 0.37,-4.44 z" style="" id="path168"/><path d="m 2.812,-21.83 c 1.406,-2.22 3.182,-3.404 5.18,-3.404 2.59,0 4.514,1.924 4.514,4.662 0,3.256 -2.59,5.772 -6.29,6.438 v 0.592 h 0.74 c 2.146,0 4.292,0.962 5.476,2.072 0.37,0.444 0.74,0.962 1.11,1.776 0.518,0.962 0.666,1.998 0.666,3.034 0,3.034 -2.294,5.402 -5.106,5.402 -0.518,0 -1.036,-0.074 -1.48,-0.148 C 6.956,-1.702 4.81,-2.886 4.292,-2.96 4.07,-3.108 3.626,-3.182 3.256,-3.182 c -0.888,0 -1.554,0.666 -1.554,1.48 0,1.11 0.962,2.22 4.736,2.22 3.774,0 6.512,-1.184 8.584,-3.404 1.406,-1.702 2.22,-3.774 2.22,-6.142 0,-3.404 -1.776,-5.772 -5.106,-7.252 2.516,-2.072 3.7,-4.144 3.7,-6.142 0,-1.258 -0.444,-2.294 -1.332,-3.33 -1.11,-1.48 -2.738,-2.22 -4.958,-2.22 -3.552,0 -5.92,2.072 -7.4,5.846 z" style="" id="path170"/></g>
</g></g><g transform="scale(2.5835866,2.5834802)" id="g100"/><g transform="matrix(2.5835866,0,0,2.5834802,2818.693,2124.3874)" id="g102"><g id="g104"><g aria-label="second" transform="translate(32.5,60.671875)" style="font-variant:normal;font-weight:normal;font-size:65px;font-family:'Times New Roman';-inkscape-font-specification:TimesNewRomanPSMT;writing-mode:lr-tb;fill:#000000;fill-opacity:1;fill-rule:nonzero;stroke:none" id="text108"><path d="m 20.820312,-29.929199 v 9.902344 h -1.047363 q -1.206054,-4.665528 -3.110351,-6.347657 -1.872559,-1.682129 -4.792481,-1.682129 -2.2216795,0 -3.5864256,1.174317 -1.3647461,1.174316 -1.3647461,2.602539 0,1.777344 1.015625,3.046875 0.9838867,1.301269 3.9990237,2.76123 l 4.633789,2.253418 q 6.442871,3.14209 6.442871,8.2836917 0,3.9672851 -3.015137,6.4111328 -2.983398,2.41210938 -6.696777,2.41210938 -2.666016,0 -6.0937502,-0.95214844 -1.0473632,-0.31738282 -1.7138671,-0.31738282 -0.7299805,0 -1.1425782,0.82519532 H 3.3007813 V -9.934082 h 1.0473632 q 0.8886719,4.4433593 3.3959961,6.6967773 2.5073244,2.25341798 5.6176754,2.25341798 2.189942,0 3.554688,-1.26953128 1.396484,-1.3012695 1.396484,-3.1103515 0,-2.1899414 -1.555176,-3.6816407 -1.523437,-1.4916988 -6.125488,-3.7768558 -4.6020506,-2.285156 -6.0302732,-4.125976 -1.4282227,-1.809082 -1.4282227,-4.570313 0,-3.586425 2.4438477,-5.998535 2.4755859,-2.412109 6.3793942,-2.412109 1.713868,0 4.157715,0.72998 1.618652,0.476074 2.158203,0.476074 0.507813,0 0.793457,-0.222167 0.285645,-0.222168 0.666504,-0.983887 z" style="" id="path173"/><path d="m 32.200195,-18.122559 q -0.03174,6.47461 3.14209,10.1562504 3.173828,3.6816406 7.458496,3.6816406 2.856446,0 4.951172,-1.5551757 2.126465,-1.5869141 3.554688,-5.3955083 l 0.983886,0.634766 q -0.666504,4.3481446 -3.87207,7.9345704 -3.205566,3.55468748 -8.029785,3.55468748 -5.236817,0 -8.981934,-4.06249998 -3.713379,-4.0942383 -3.713379,-10.9814449 0,-7.458497 3.808594,-11.616211 3.840332,-4.189453 9.616699,-4.189453 4.887696,0 8.029785,3.237304 3.14209,3.205567 3.14209,8.601074 z m 0,-1.84082 h 13.457032 q -0.158692,-2.792969 -0.666504,-3.935547 -0.793457,-1.777344 -2.380371,-2.792969 -1.555176,-1.015625 -3.269043,-1.015625 -2.634278,0 -4.729004,2.062989 -2.062989,2.03125 -2.41211,5.681152 z" style="" id="path175"/><path d="m 80.848633,-11.044922 q -1.174317,5.744629 -4.602051,8.8549806 -3.427734,3.07861328 -7.585449,3.07861328 -4.951172,0 -8.632813,-4.15771488 -3.68164,-4.1577148 -3.68164,-11.235352 0,-6.855468 4.0625,-11.140136 4.094238,-4.284668 9.807129,-4.284668 4.284668,0 7.045898,2.285156 2.76123,2.253418 2.76123,4.697266 0,1.206054 -0.793457,1.967773 -0.761718,0.729981 -2.158203,0.729981 -1.872558,0 -2.824707,-1.206055 -0.53955,-0.666504 -0.72998,-2.539063 -0.158692,-1.872558 -1.269531,-2.856445 -1.11084,-0.952148 -3.078614,-0.952148 -3.173828,0 -5.109863,2.348632 -2.570801,3.110352 -2.570801,8.220215 0,5.205078 2.539063,9.2041018 2.570801,3.9672852 6.918945,3.9672852 3.110352,0 5.585938,-2.1264648 1.745605,-1.459961 3.395996,-5.3002932 z" style="" id="path177"/><path d="m 99.21875,-29.929199 q 6.60156,0 10.60059,5.014648 3.39599,4.284668 3.39599,9.838867 0,3.903809 -1.87256,7.9028324 -1.87256,3.9990235 -5.17334,6.0302735 -3.26904,2.03124998 -7.299801,2.03124998 -6.569824,0 -10.441895,-5.23681638 -3.269043,-4.4116211 -3.269043,-9.9023435 0,-3.999024 1.967774,-7.934571 1.999512,-3.967285 5.236816,-5.839843 3.237305,-1.904297 6.855469,-1.904297 z m -0.983887,2.062988 q -1.682129,0 -3.395996,1.015625 -1.682129,0.983887 -2.729492,3.491211 -1.047363,2.507324 -1.047363,6.442871 0,6.347656 2.507324,10.9497071 2.539062,4.6020508 6.665044,4.6020508 3.07861,0 5.07812,-2.5390625 1.99951,-2.5390625 1.99951,-8.7280274 0,-7.744141 -3.33252,-12.1875 -2.25342,-3.046875 -5.744627,-3.046875 z" style="" id="path179"/><path d="m 125.97412,-23.771973 q 5.10986,-6.157226 9.74365,-6.157226 2.38037,0 4.09424,1.206054 1.71387,1.174317 2.72949,3.903809 0.69825,1.904297 0.69825,5.839844 v 12.4096678 q 0,2.7612304 0.44433,3.7451172 0.34912,0.793457 1.11084,1.2377929 0.79346,0.444336 2.88819,0.444336 V 0 h -14.37745 v -1.1425781 h 0.60303 q 2.03125,0 2.82471,-0.6030274 0.82519,-0.6347656 1.14258,-1.8408203 0.12695,-0.4760742 0.12695,-2.9833984 V -18.47168 q 0,-3.967285 -1.04736,-5.744629 -1.01563,-1.809082 -3.45948,-1.809082 -3.77685,0 -7.52197,4.125977 v 15.3295898 q 0,2.9516601 0.34912,3.6499023 0.44434,0.9204102 1.20606,1.3647461 0.79345,0.4125977 3.17382,0.4125977 V 0 h -14.37744 v -1.1425781 h 0.63477 q 2.22168,0 2.9834,-1.1108399 0.79345,-1.1425781 0.79345,-4.3164062 V -17.36084 q 0,-5.236816 -0.2539,-6.379394 -0.22217,-1.142578 -0.72998,-1.555176 -0.47608,-0.412598 -1.30127,-0.412598 -0.88867,0 -2.12647,0.476074 l -0.47607,-1.142578 8.75977,-3.554687 h 1.36474 z" style="" id="path181"/><path d="m 170.53467,-3.269043 q -2.12647,2.2216797 -4.15772,3.20556644 -2.03125,0.95214844 -4.37988,0.95214844 -4.76074,0 -8.31543,-3.96728518 -3.55469,-3.9990234 -3.55469,-10.2514647 0,-6.252442 3.93555,-11.425781 3.93555,-5.205078 10.12451,-5.205078 3.84033,0 6.34766,2.443847 v -5.363769 q 0,-4.982911 -0.25391,-6.125489 -0.22217,-1.142578 -0.72998,-1.555175 -0.50781,-0.412598 -1.26953,-0.412598 -0.8252,0 -2.18994,0.507812 l -0.4126,-1.110839 8.66455,-3.554688 h 1.42822 v 33.61084 q 0,5.1098632 0.22217,6.2524413 0.25391,1.1108399 0.76172,1.5551758 0.53955,0.4443359 1.23779,0.4443359 0.85694,0 2.28516,-0.5395508 l 0.34912,1.1108399 -8.63281,3.58642578 h -1.45996 z m 0,-2.2216797 V -20.471191 q -0.19043,-2.158204 -1.14258,-3.935547 -0.95215,-1.777344 -2.53906,-2.666016 -1.55518,-0.92041 -3.04688,-0.92041 -2.79297,0 -4.98291,2.507324 -2.88818,3.300781 -2.88818,9.648438 0,6.4111325 2.79297,9.8388668 2.79297,3.3959961 6.2207,3.3959961 2.88818,0 5.58594,-2.8881836 z" style="" id="path183"/></g>
</g><g id="g110"><g aria-label="inversion" transform="translate(0,135.67187)" style="font-variant:normal;font-weight:normal;font-size:65px;font-family:'Times New Roman';-inkscape-font-specification:TimesNewRomanPSMT;writing-mode:lr-tb;fill:#000000;fill-opacity:1;fill-rule:nonzero;stroke:none" id="text114"><path d="m 9.4262695,-45.131836 q 1.3330075,0 2.2534185,0.952149 0.952148,0.92041 0.952148,2.253417 0,1.333008 -0.952148,2.285157 -0.920411,0.952148 -2.2534185,0.952148 -1.3330078,0 -2.2851562,-0.952148 -0.9521485,-0.952149 -0.9521485,-2.285157 0,-1.333007 0.9204102,-2.253417 0.9521484,-0.952149 2.3168945,-0.952149 z m 2.6342775,15.202637 v 23.3593748 q 0,2.7294922 0.380859,3.6499023 0.412598,0.8886719 1.174317,1.3330078 0.793457,0.444336 2.856445,0.444336 V 0 H 2.3486328 v -1.1425781 q 2.1264649,0 2.8564453,-0.4125977 0.7299805,-0.4125976 1.1425781,-1.3647461 0.444336,-0.9521484 0.444336,-3.6499023 V -17.773437 q 0,-4.729004 -0.2856445,-6.125489 -0.222168,-1.015625 -0.6982422,-1.396484 -0.4760743,-0.412598 -1.3012696,-0.412598 -0.8886718,0 -2.1582031,0.476074 l -0.4443359,-1.142578 8.7597661,-3.554687 z" style="" id="path186"/><path d="m 28.552246,-23.771973 q 5.109863,-6.157226 9.743652,-6.157226 2.380372,0 4.094239,1.206054 1.713867,1.174317 2.729492,3.903809 0.698242,1.904297 0.698242,5.839844 v 12.4096678 q 0,2.7612304 0.444336,3.7451172 0.349121,0.793457 1.11084,1.2377929 0.793457,0.444336 2.888183,0.444336 V 0 H 35.883789 v -1.1425781 h 0.603027 q 2.03125,0 2.824707,-0.6030274 0.825196,-0.6347656 1.142579,-1.8408203 0.126953,-0.4760742 0.126953,-2.9833984 V -18.47168 q 0,-3.967285 -1.047364,-5.744629 -1.015625,-1.809082 -3.459472,-1.809082 -3.776856,0 -7.521973,4.125977 v 15.3295898 q 0,2.9516601 0.349121,3.6499023 0.444336,0.9204102 1.206055,1.3647461 0.793457,0.4125977 3.173828,0.4125977 V 0 H 18.903809 v -1.1425781 h 0.634765 q 2.22168,0 2.983399,-1.1108399 0.793457,-1.1425781 0.793457,-4.3164062 V -17.36084 q 0,-5.236816 -0.253907,-6.379394 -0.222168,-1.142578 -0.72998,-1.555176 -0.476074,-0.412598 -1.30127,-0.412598 -0.888671,0 -2.126464,0.476074 l -0.476075,-1.142578 8.759766,-3.554687 h 1.364746 z" style="" id="path188"/><path d="m 51.086426,-29.072266 h 13.679199 v 1.174317 h -0.888672 q -1.237793,0 -1.904297,0.603027 -0.634765,0.603027 -0.634765,1.618652 0,1.11084 0.666504,2.634278 l 6.760253,16.0595701 6.791993,-16.6625981 q 0.72998,-1.777343 0.72998,-2.697753 0,-0.444336 -0.253906,-0.729981 -0.349121,-0.476074 -0.888672,-0.634766 -0.539551,-0.190429 -2.189941,-0.190429 v -1.174317 h 9.489746 v 1.174317 q -1.650391,0.126953 -2.285157,0.666504 -1.110839,0.952148 -1.999511,3.173828 L 67.844238,0.88867188 H 66.542969 L 56.164551,-23.64502 q -0.698242,-1.713867 -1.333008,-2.443847 -0.634766,-0.761719 -1.618652,-1.269531 -0.539551,-0.285645 -2.126465,-0.539551 z" style="" id="path190"/><path d="m 89.96582,-18.122559 q -0.03174,6.47461 3.14209,10.1562504 3.173828,3.6816406 7.4585,3.6816406 2.85644,0 4.95117,-1.5551757 2.12646,-1.5869141 3.55469,-5.3955083 l 0.98388,0.634766 q -0.6665,4.3481446 -3.87207,7.9345704 -3.20556,3.55468748 -8.029783,3.55468748 -5.236817,0 -8.981934,-4.06249998 -3.713379,-4.0942383 -3.713379,-10.9814449 0,-7.458497 3.808594,-11.616211 3.840332,-4.189453 9.616699,-4.189453 4.887693,0 8.029783,3.237304 3.14209,3.205567 3.14209,8.601074 z m 0,-1.84082 h 13.45703 q -0.15869,-2.792969 -0.6665,-3.935547 -0.79346,-1.777344 -2.38037,-2.792969 -1.555179,-1.015625 -3.269046,-1.015625 -2.634278,0 -4.729004,2.062989 -2.062989,2.03125 -2.41211,5.681152 z" style="" id="path193"/><path d="m 122.42773,-29.929199 v 6.538086 q 3.6499,-6.538086 7.49023,-6.538086 1.74561,0 2.88818,1.079101 1.14258,1.047364 1.14258,2.443848 0,1.237793 -0.82519,2.094727 -0.8252,0.856933 -1.96778,0.856933 -1.11084,0 -2.50732,-1.079101 -1.36475,-1.11084 -2.03125,-1.11084 -0.57129,0 -1.23779,0.634765 -1.42823,1.30127 -2.95166,4.284668 v 13.9331058 q 0,2.4121094 0.60302,3.6499024 0.4126,0.8569335 1.45997,1.4282226 1.04736,0.5712891 3.01513,0.5712891 V 0 H 112.6206 v -1.1425781 q 2.22168,0 3.30078,-0.6982422 0.79346,-0.5078125 1.11084,-1.6186524 0.15869,-0.5395507 0.15869,-3.0786132 V -17.805176 q 0,-5.078125 -0.22217,-6.030273 -0.19043,-0.983887 -0.76172,-1.428223 -0.53955,-0.444336 -1.36474,-0.444336 -0.98389,0 -2.22168,0.476074 l -0.31738,-1.142578 8.7915,-3.554687 z" style="" id="path195"/><path d="m 154.35156,-29.929199 v 9.902344 h -1.04736 q -1.20606,-4.665528 -3.11035,-6.347657 -1.87256,-1.682129 -4.79248,-1.682129 -2.22168,0 -3.58643,1.174317 -1.36474,1.174316 -1.36474,2.602539 0,1.777344 1.01562,3.046875 0.98389,1.301269 3.99902,2.76123 l 4.63379,2.253418 q 6.44287,3.14209 6.44287,8.2836917 0,3.9672851 -3.01513,6.4111328 -2.9834,2.41210938 -6.69678,2.41210938 -2.66602,0 -6.09375,-0.95214844 -1.04736,-0.31738282 -1.71387,-0.31738282 -0.72998,0 -1.14258,0.82519532 h -1.04736 V -9.934082 h 1.04736 q 0.88868,4.4433593 3.396,6.6967773 2.50732,2.25341798 5.61768,2.25341798 2.18994,0 3.55468,-1.26953128 1.39649,-1.3012695 1.39649,-3.1103515 0,-2.1899414 -1.55518,-3.6816407 -1.52344,-1.4916988 -6.12549,-3.7768558 -4.60205,-2.285156 -6.03027,-4.125976 -1.42822,-1.809082 -1.42822,-4.570313 0,-3.586425 2.44385,-5.998535 2.47558,-2.412109 6.37939,-2.412109 1.71387,0 4.15772,0.72998 1.61865,0.476074 2.1582,0.476074 0.50781,0 0.79346,-0.222167 0.28564,-0.222168 0.6665,-0.983887 z" style="" id="path197"/><path d="m 168.23877,-45.131836 q 1.33301,0 2.25342,0.952149 0.95215,0.92041 0.95215,2.253417 0,1.333008 -0.95215,2.285157 -0.92041,0.952148 -2.25342,0.952148 -1.33301,0 -2.28516,-0.952148 -0.95215,-0.952149 -0.95215,-2.285157 0,-1.333007 0.92041,-2.253417 0.95215,-0.952149 2.3169,-0.952149 z m 2.63428,15.202637 v 23.3593748 q 0,2.7294922 0.38086,3.6499023 0.41259,0.8886719 1.17431,1.3330078 0.79346,0.444336 2.85645,0.444336 V 0 h -14.12354 v -1.1425781 q 2.12647,0 2.85645,-0.4125977 0.72998,-0.4125976 1.14258,-1.3647461 0.44433,-0.9521484 0.44433,-3.6499023 V -17.773437 q 0,-4.729004 -0.28564,-6.125489 -0.22217,-1.015625 -0.69824,-1.396484 -0.47608,-0.412598 -1.30127,-0.412598 -0.88868,0 -2.15821,0.476074 l -0.44433,-1.142578 8.75976,-3.554687 z" style="" id="path199"/><path d="m 193.10937,-29.929199 q 6.60157,0 10.60059,5.014648 3.396,4.284668 3.396,9.838867 0,3.903809 -1.87256,7.9028324 -1.87256,3.9990235 -5.17334,6.0302735 -3.26904,2.03124998 -7.29981,2.03124998 -6.56982,0 -10.44189,-5.23681638 -3.26904,-4.4116211 -3.26904,-9.9023435 0,-3.999024 1.96777,-7.934571 1.99951,-3.967285 5.23682,-5.839843 3.2373,-1.904297 6.85546,-1.904297 z m -0.98388,2.062988 q -1.68213,0 -3.396,1.015625 -1.68213,0.983887 -2.72949,3.491211 -1.04736,2.507324 -1.04736,6.442871 0,6.347656 2.50732,10.9497071 2.53906,4.6020508 6.66504,4.6020508 3.07861,0 5.07812,-2.5390625 1.99952,-2.5390625 1.99952,-8.7280274 0,-7.744141 -3.33252,-12.1875 -2.25342,-3.046875 -5.74463,-3.046875 z" style="" id="path201"/><path d="m 219.86475,-23.771973 q 5.10986,-6.157226 9.74365,-6.157226 2.38037,0 4.09424,1.206054 1.71386,1.174317 2.72949,3.903809 0.69824,1.904297 0.69824,5.839844 v 12.4096678 q 0,2.7612304 0.44434,3.7451172 0.34912,0.793457 1.11084,1.2377929 0.79345,0.444336 2.88818,0.444336 V 0 h -14.37744 v -1.1425781 h 0.60303 q 2.03125,0 2.8247,-0.6030274 0.8252,-0.6347656 1.14258,-1.8408203 0.12695,-0.4760742 0.12695,-2.9833984 V -18.47168 q 0,-3.967285 -1.04736,-5.744629 -1.01562,-1.809082 -3.45947,-1.809082 -3.77686,0 -7.52197,4.125977 v 15.3295898 q 0,2.9516601 0.34912,3.6499023 0.44433,0.9204102 1.20605,1.3647461 0.79346,0.4125977 3.17383,0.4125977 V 0 h -14.37744 v -1.1425781 h 0.63476 q 2.22168,0 2.9834,-1.1108399 0.79346,-1.1425781 0.79346,-4.3164062 V -17.36084 q 0,-5.236816 -0.25391,-6.379394 -0.22216,-1.142578 -0.72998,-1.555176 -0.47607,-0.412598 -1.30127,-0.412598 -0.88867,0 -2.12646,0.476074 l -0.47608,-1.142578 8.75977,-3.554687 h 1.36475 z" style="" id="path203"/></g>
</g></g><g transform="scale(2.5835866,2.5834802)" id="g116"/><g transform="matrix(2.5835866,0,0,2.5834802,3048.6322,1921.5842)" id="g118"><g id="g120"><g aria-label="6$" transform="translate(0,58.59375)" style="font-variant:normal;font-weight:normal;font-size:74px;font-family:'Opus Roman Chords Std';-inkscape-font-specification:OpusRomanChordsStd;writing-mode:lr-tb;fill:#000000;fill-opacity:1;fill-rule:nonzero;stroke:none" id="text124"><path d="m 15.688,-66.452 c -2.96,0 -6.216,0.962 -9.99,4.44 C 2.146,-58.682 0,-54.168 0,-49.284 c 0,3.848 1.258,7.03 3.848,9.472 1.332,1.258 2.96,1.85 4.81,1.85 2.812,0 5.032,-1.184 6.66,-3.478 1.332,-1.85 1.998,-3.996 1.998,-6.29 0,-4.662 -3.034,-8.066 -6.882,-8.066 -1.924,0 -3.848,0.666 -5.772,1.998 0.814,-3.7 2.294,-6.216 4.514,-8.436 2.22,-2.22 4.144,-3.108 7.696,-3.478 v -0.74 z m -11.47,14.134 c 2.368,-1.48 3.182,-1.628 4.292,-1.628 3.33,0 5.254,3.848 5.254,8.436 0,4.144 -2.22,6.364 -4.514,6.364 -1.036,0 -1.85,-0.296 -2.516,-0.962 -1.924,-1.85 -2.886,-5.18 -2.886,-7.77 0,-1.11 0.074,-2.59 0.37,-4.44 z" style="" id="path206"/><path d="M 15.17,-10.064 V -27.972 H 12.95 L 0.296,-9.842 v 2.664 H 11.84 V 0 h 3.33 v -7.178 h 3.7 v -2.886 z m -12.95,0 9.62,-13.616 v 13.616 z" style="" id="path208"/></g>
</g></g><g transform="scale(2.5835866,2.5834802)" id="g126"><path id="path128" style="fill:none;stroke:#000000;stroke-width:3;stroke-linecap:butt;stroke-linejoin:bevel;stroke-miterlimit:10;stroke-dasharray:none;stroke-opacity:1" d="M 632,572 V 457" inkscape:connector-curvature="0"/><g id="g130"><g aria-label="&#339;" transform="translate(589,577)" style="font-variant:normal;font-weight:normal;font-size:128px;font-family:'Opus Std';-inkscape-font-specification:OpusStd;writing-mode:lr-tb;fill:#000000;fill-opacity:1;fill-rule:nonzero;stroke:none" id="text134"><path d="m 14.336,16.64 c 13.184,0 29.44,-11.008 29.44,-22.272 0,-6.784 -6.016,-11.136 -14.592,-11.136 C 16.256,-16.768 0,-6.016 0,5.504 0,12.544 6.272,16.64 14.336,16.64 Z" style="" id="path211"/></g>
</g><g id="g136"><g aria-label="&#339;" transform="translate(589,545)" style="font-variant:normal;font-weight:normal;font-size:128px;font-family:'Opus Std';-inkscape-font-specification:OpusStd;writing-mode:lr-tb;fill:#000000;fill-opacity:1;fill-rule:nonzero;stroke:none" id="text140"><path d="m 14.336,16.64 c 13.184,0 29.44,-11.008 29.44,-22.272 0,-6.784 -6.016,-11.136 -14.592,-11.136 C 16.256,-16.768 0,-6.016 0,5.504 0,12.544 6.272,16.64 14.336,16.64 Z" style="" id="path214"/></g>
</g><path id="path142" style="fill:none;stroke:#000000;stroke-width:3;stroke-linecap:butt;stroke-linejoin:bevel;stroke-miterlimit:10;stroke-dasharray:none;stroke-opacity:1" d="m 590,614 v 99" inkscape:connector-curvature="0"/><g id="g144"><g aria-label="&#339;" transform="translate(589,609)" style="font-variant:normal;font-weight:normal;font-size:128px;font-family:'Opus Std';-inkscape-font-specification:OpusStd;writing-mode:lr-tb;fill:#000000;fill-opacity:1;fill-rule:nonzero;stroke:none" id="text148"><path d="m 14.336,16.64 c 13.184,0 29.44,-11.008 29.44,-22.272 0,-6.784 -6.016,-11.136 -14.592,-11.136 C 16.256,-16.768 0,-6.016 0,5.504 0,12.544 6.272,16.64 14.336,16.64 Z" style="" id="path217"/></g>
</g><path id="path150" style="fill:none;stroke:#000000;stroke-width:5;stroke-linecap:butt;stroke-linejoin:bevel;stroke-miterlimit:10;stroke-dasharray:none;stroke-opacity:1" d="m 867,497 h 68" inkscape:connector-curvature="0"/><path id="path152" style="fill:none;stroke:#000000;stroke-width:3;stroke-linecap:butt;stroke-linejoin:bevel;stroke-miterlimit:10;stroke-dasharray:none;stroke-opacity:1" d="M 922,540 V 409" inkscape:connector-curvature="0"/><g id="g154"><g aria-label="&#339;" transform="translate(879,545)" style="font-variant:normal;font-weight:normal;font-size:128px;font-family:'Opus Std';-inkscape-font-specification:OpusStd;writing-mode:lr-tb;fill:#000000;fill-opacity:1;fill-rule:nonzero;stroke:none" id="text158"><path d="m 14.336,16.64 c 13.184,0 29.44,-11.008 29.44,-22.272 0,-6.784 -6.016,-11.136 -14.592,-11.136 C 16.256,-16.768 0,-6.016 0,5.504 0,12.544 6.272,16.64 14.336,16.64 Z" style="" id="path220"/></g>
</g><g id="g160"><g aria-label="&#339;" transform="translate(879,497)" style="font-variant:normal;font-weight:normal;font-size:128px;font-family:'Opus Std';-inkscape-font-specification:OpusStd;writing-mode:lr-tb;fill:#000000;fill-opacity:1;fill-rule:nonzero;stroke:none" id="text164"><path d="m 14.336,16.64 c 13.184,0 29.44,-11.008 29.44,-22.272 0,-6.784 -6.016,-11.136 -14.592,-11.136 C 16.256,-16.768 0,-6.016 0,5.504 0,12.544 6.272,16.64 14.336,16.64 Z" style="" id="path223"/></g>
</g><path id="path166" style="fill:none;stroke:#000000;stroke-width:3;stroke-linecap:butt;stroke-linejoin:bevel;stroke-miterlimit:10;stroke-dasharray:none;stroke-opacity:1" d="M 880,582 V 689" inkscape:connector-curvature="0"/><g id="g168"><g aria-label="&#339;" transform="translate(879,577)" style="font-variant:normal;font-weight:normal;font-size:128px;font-family:'Opus Std';-inkscape-font-specification:OpusStd;writing-mode:lr-tb;fill:#000000;fill-opacity:1;fill-rule:nonzero;stroke:none" id="text172"><path d="m 14.336,16.64 c 13.184,0 29.44,-11.008 29.44,-22.272 0,-6.784 -6.016,-11.136 -14.592,-11.136 C 16.256,-16.768 0,-6.016 0,5.504 0,12.544 6.272,16.64 14.336,16.64 Z" style="" id="path226"/></g>
</g><path id="path174" style="fill:none;stroke:#000000;stroke-width:5;stroke-linecap:butt;stroke-linejoin:bevel;stroke-miterlimit:10;stroke-dasharray:none;stroke-opacity:1" d="m 1158,497 h 68" inkscape:connector-curvature="0"/><path id="path176" style="fill:none;stroke:#000000;stroke-width:5;stroke-linecap:butt;stroke-linejoin:bevel;stroke-miterlimit:10;stroke-dasharray:none;stroke-opacity:1" d="m 1158,465 h 68" inkscape:connector-curvature="0"/><path id="path178" style="fill:none;stroke:#000000;stroke-width:3;stroke-linecap:butt;stroke-linejoin:bevel;stroke-miterlimit:10;stroke-dasharray:none;stroke-opacity:1" d="M 1213,492 V 377" inkscape:connector-curvature="0"/><g id="g180"><g aria-label="&#339;" transform="translate(1170,497)" style="font-variant:normal;font-weight:normal;font-size:128px;font-family:'Opus Std';-inkscape-font-specification:OpusStd;writing-mode:lr-tb;fill:#000000;fill-opacity:1;fill-rule:nonzero;stroke:none" id="text184"><path d="m 14.336,16.64 c 13.184,0 29.44,-11.008 29.44,-22.272 0,-6.784 -6.016,-11.136 -14.592,-11.136 C 16.256,-16.768 0,-6.016 0,5.504 0,12.544 6.272,16.64 14.336,16.64 Z" style="" id="path229"/></g>
</g><g id="g186"><g aria-label="&#339;" transform="translate(1170,465)" style="font-variant:normal;font-weight:normal;font-size:128px;font-family:'Opus Std';-inkscape-font-specification:OpusStd;writing-mode:lr-tb;fill:#000000;fill-opacity:1;fill-rule:nonzero;stroke:none" id="text190"><path d="m 14.336,16.64 c 13.184,0 29.44,-11.008 29.44,-22.272 0,-6.784 -6.016,-11.136 -14.592,-11.136 C 16.256,-16.768 0,-6.016 0,5.504 0,12.544 6.272,16.64 14.336,16.64 Z" style="" id="path232"/></g>
</g><path id="path192" style="fill:none;stroke:#000000;stroke-width:3;stroke-linecap:butt;stroke-linejoin:bevel;stroke-miterlimit:10;stroke-dasharray:none;stroke-opacity:1" d="M 1171,550 V 657" inkscape:connector-curvature="0"/><g id="g194"><g aria-label="&#339;" transform="translate(1170,545)" style="font-variant:normal;font-weight:normal;font-size:128px;font-family:'Opus Std';-inkscape-font-specification:OpusStd;writing-mode:lr-tb;fill:#000000;fill-opacity:1;fill-rule:nonzero;stroke:none" id="text198"><path d="m 14.336,16.64 c 13.184,0 29.44,-11.008 29.44,-22.272 0,-6.784 -6.016,-11.136 -14.592,-11.136 C 16.256,-16.768 0,-6.016 0,5.504 0,12.544 6.272,16.64 14.336,16.64 Z" style="" id="path235"/></g>
</g></g></g></g></g></svg>