<svg xmlns:dc="http://purl.org/dc/elements/1.1/" xmlns:cc="http://creativecommons.org/ns#" xmlns:rdf="http://www.w3.org/1999/02/22-rdf-syntax-ns#" xmlns:svg="http://www.w3.org/2000/svg" xmlns="http://www.w3.org/2000/svg" xmlns:sodipodi="http://sodipodi.sourceforge.net/DTD/sodipodi-0.dtd" xmlns:inkscape="http://www.inkscape.org/namespaces/inkscape" viewBox="0 0 476.51669 50.901848" height="76.352772" width="714.775035" xml:space="preserve" id="svg2" version="1.1" sodipodi:docname="example_13-16.svg" inkscape:version="0.92.4 (5da689c313, 2019-01-14)" viewbox="0 0 714.775035 76.352772"><sodipodi:namedview pagecolor="#ffffff" bordercolor="#666666" borderopacity="1" objecttolerance="10" gridtolerance="10" guidetolerance="10" inkscape:pageopacity="0" inkscape:pageshadow="2" inkscape:window-width="640" inkscape:window-height="480" id="namedview80" showgrid="false" inkscape:zoom="0.22348485" inkscape:cx="336.69301" inkscape:cy="-300.75706" inkscape:window-x="0" inkscape:window-y="0" inkscape:window-maximized="0" inkscape:current-layer="svg2"/><metadata id="metadata8"><rdf:RDF><cc:Work rdf:about=""><dc:format>image/svg+xml</dc:format><dc:type rdf:resource="http://purl.org/dc/dcmitype/StillImage"/></cc:Work></rdf:RDF></metadata><defs id="defs6"/><g transform="matrix(1.3333333,0,0,-1.3333333,-71.306988,879.65891)" id="g10"><g transform="matrix(0.06,0,0,-0.06,0,792)" id="g12"><g id="g14"><g id="g16"/></g><g id="g18"><g id="g20"/><g transform="scale(2.5835866,2.5834802)" id="g22"><path id="path24" style="fill:none;stroke:#000000;stroke-width:5;stroke-linecap:butt;stroke-linejoin:bevel;stroke-miterlimit:10;stroke-dasharray:none;stroke-opacity:1" d="m 2631,970 v 128" inkscape:connector-curvature="0"/><path id="path26" style="fill:none;stroke:#000000;stroke-width:5;stroke-linecap:butt;stroke-linejoin:bevel;stroke-miterlimit:10;stroke-dasharray:none;stroke-opacity:1" d="m 2648,970 v 128" inkscape:connector-curvature="0"/></g><g transform="matrix(2.5835866,0,0,2.5834802,653.64741,2555.3038)" id="g28"><g id="g30"/></g><g transform="scale(2.5835866,2.5834802)" id="g32"><path id="path34" style="fill:none;stroke:#000000;stroke-width:3;stroke-linecap:butt;stroke-linejoin:bevel;stroke-miterlimit:10;stroke-dasharray:none;stroke-opacity:1" d="M 345,1098 H 2650" inkscape:connector-curvature="0"/><path id="path36" style="fill:none;stroke:#000000;stroke-width:3;stroke-linecap:butt;stroke-linejoin:bevel;stroke-miterlimit:10;stroke-dasharray:none;stroke-opacity:1" d="M 345,1066 H 2650" inkscape:connector-curvature="0"/><path id="path38" style="fill:none;stroke:#000000;stroke-width:3;stroke-linecap:butt;stroke-linejoin:bevel;stroke-miterlimit:10;stroke-dasharray:none;stroke-opacity:1" d="M 345,1034 H 2650" inkscape:connector-curvature="0"/><path id="path40" style="fill:none;stroke:#000000;stroke-width:3;stroke-linecap:butt;stroke-linejoin:bevel;stroke-miterlimit:10;stroke-dasharray:none;stroke-opacity:1" d="M 345,1002 H 2650" inkscape:connector-curvature="0"/><path id="path42" style="fill:none;stroke:#000000;stroke-width:3;stroke-linecap:butt;stroke-linejoin:bevel;stroke-miterlimit:10;stroke-dasharray:none;stroke-opacity:1" d="M 345,970 H 2650" inkscape:connector-curvature="0"/><g id="g44"><g aria-label="?" transform="translate(369,1002)" style="font-variant:normal;font-weight:normal;font-size:128px;font-family:'Opus Std';-inkscape-font-specification:OpusStd;writing-mode:lr-tb;fill:#000000;fill-opacity:1;fill-rule:nonzero;stroke:none" id="text48"><path d="M 1.152,70.656 C 1.28,72.576 2.56,73.6 5.248,73.6 15.744,73.6 44.928,59.136 57.216,39.424 67.072,23.808 69.888,15.744 69.888,5.12 69.888,-11.904 62.08,-32.512 32,-32.512 c -16.384,0 -31.232,11.52 -31.232,26.624 0,9.856 5.248,18.304 13.312,18.304 8.064,0 13.568,-6.144 13.568,-14.208 0,-5.76 -4.352,-11.008 -9.984,-11.008 -5.248,0 -9.216,4.096 -8.832,4.096 -0.64,0 -0.896,-0.64 -0.896,-2.048 0,-8.96 11.264,-17.664 21.632,-17.664 14.592,0 23.808,12.16 23.808,28.416 0,20.224 -11.776,42.624 -30.592,59.52 C 17.792,64 10.496,67.712 1.152,70.656 Z M 80.64,-16 c 0,3.584 2.816,6.4 6.4,6.4 3.584,0 6.4,-2.816 6.4,-6.4 0,-3.584 -2.816,-6.4 -6.4,-6.4 -3.584,0 -6.4,2.816 -6.4,6.4 z m 0,31.872 c 0,3.584 2.816,6.4 6.4,6.4 3.584,0 6.4,-2.816 6.4,-6.4 0,-3.584 -2.816,-6.4 -6.4,-6.4 -3.584,0 -6.4,2.816 -6.4,6.4 z" style="" id="path83"/></g>
</g></g><g transform="matrix(2.5835866,0,0,2.5834802,1348.6322,2153.0075)" id="g50"><g id="g52"><g aria-label="1" transform="translate(0,71.875)" style="font-variant:normal;font-weight:normal;font-size:77px;font-family:'Times New Roman';-inkscape-font-specification:TimesNewRomanSchenker;writing-mode:lr-tb;fill:#000000;fill-opacity:1;fill-rule:nonzero;stroke:none" id="text56"><path d="m 9.0234375,-45.981934 12.4072265,-6.053222 h 1.240723 v 43.0493162 q 0,4.2861328 0.338379,5.3388671 0.375976,1.0527344 1.503906,1.6166993 1.12793,0.5639648 4.586914,0.6391601 V 0 H 9.9257813 v -1.3911133 q 3.6093747,-0.075195 4.6621097,-0.6015625 1.052734,-0.5639648 1.466308,-1.4663086 0.413574,-0.9399414 0.413574,-5.5268554 V -36.507324 q 0,-5.564453 -0.375976,-7.143555 -0.263184,-1.203125 -0.977539,-1.76709 -0.676758,-0.563965 -1.654297,-0.563965 -1.391113,0 -3.8725587,1.165528 z" style="" id="path87"/></g>
</g></g><g transform="scale(2.5835866,2.5834802)" id="g58"/><g transform="matrix(2.5835866,0,0,2.5834802,2544.8328,2153.0075)" id="g60"><g id="g62"><g aria-label="3" transform="translate(0,71.875)" style="font-variant:normal;font-weight:normal;font-size:77px;font-family:'Times New Roman';-inkscape-font-specification:TimesNewRomanSchenker;writing-mode:lr-tb;fill:#000000;fill-opacity:1;fill-rule:nonzero;stroke:none" id="text66"><path d="m 3.9101563,-41.282227 q 2.180664,-5.150878 5.4892578,-7.933105 3.3461909,-2.819824 8.3090819,-2.819824 6.128418,0 9.399414,3.985351 2.481445,2.970215 2.481445,6.354004 0,5.564453 -6.993164,11.504883 4.699707,1.842285 7.105957,5.263672 2.40625,3.421387 2.40625,8.045898 0,6.617188 -4.210937,11.4672855 -5.489258,6.31640625 -15.903809,6.31640625 -5.1508786,0 -7.0307614,-1.27832031 -1.8422851,-1.27832034 -1.8422851,-2.74462894 0,-1.090332 0.8647461,-1.9174804 0.9023437,-0.8271485 2.1430664,-0.8271485 0.9399414,0 1.9174804,0.3007813 0.6391602,0.1879883 2.8950196,1.3911133 2.255859,1.1655273 3.120605,1.3911132 1.391114,0.4135743 2.970215,0.4135743 3.834961,0 6.654785,-2.9702149 2.857422,-2.9702148 2.857422,-7.0307618 0,-2.970215 -1.315918,-5.790039 -0.977539,-2.105469 -2.143066,-3.195801 -1.616699,-1.503906 -4.436524,-2.707031 -2.819824,-1.240723 -5.752441,-1.240723 h -1.203125 v -1.127929 q 2.970215,-0.375977 5.94043,-2.143067 3.007812,-1.76709 4.361328,-4.248535 1.353516,-2.481445 1.353516,-5.45166 0,-3.872559 -2.443848,-6.241211 -2.40625,-2.40625 -6.015625,-2.40625 -5.8276368,0 -9.7377931,6.241211 z" style="" id="path91"/></g>
</g></g><g transform="scale(2.5835866,2.5834802)" id="g68"/><g transform="matrix(2.5835866,0,0,2.5834802,3741.0334,2153.0075)" id="g70"><g id="g72"><g aria-label="5" transform="translate(0,71.875)" style="font-variant:normal;font-weight:normal;font-size:77px;font-family:'Times New Roman';-inkscape-font-specification:TimesNewRomanSchenker;writing-mode:lr-tb;fill:#000000;fill-opacity:1;fill-rule:nonzero;stroke:none" id="text76"><path d="m 33.424316,-50.982422 -2.932617,6.391602 H 15.151855 l -3.346191,6.842773 q 9.963379,1.466309 15.791016,7.406738 5.000488,5.113282 5.000488,12.03125 0,4.02295 -1.654297,7.444336 -1.616699,3.4213871 -4.098144,5.8276371 -2.481446,2.40625 -5.526856,3.8725586 -4.32373,2.06787105 -8.873047,2.06787105 -4.5869138,0 -6.6923826,-1.54150391 -2.0678711,-1.57910154 -2.0678711,-3.45898434 0,-1.0527344 0.8647461,-1.8422852 0.8647461,-0.8271484 2.1806641,-0.8271484 0.977539,0 1.6918945,0.3007812 0.7519531,0.3007813 2.519043,1.5415039 2.819824,1.9550782 5.714844,1.9550782 4.398925,0 7.707519,-3.3085938 3.346192,-3.3461914 3.346192,-8.1210934 0,-4.624512 -2.970215,-8.609864 -2.970215,-4.022949 -8.196289,-6.203613 -4.098145,-1.691894 -11.1665042,-1.955078 l 9.7753902,-19.813965 z" style="" id="path94"/></g>
</g></g><g transform="scale(2.5835866,2.5834802)" id="g78"><path id="path80" style="fill:#000000;fill-opacity:1;fill-rule:evenodd;stroke:#000000;stroke-width:4;stroke-linecap:butt;stroke-linejoin:bevel;stroke-miterlimit:10;stroke-dasharray:none;stroke-opacity:1" d="m 2319,1062 24,-12 -24,-12 4,12 z" inkscape:connector-curvature="0"/><path id="path82" style="fill:none;stroke:#000000;stroke-width:4;stroke-linecap:butt;stroke-linejoin:bevel;stroke-miterlimit:10;stroke-dasharray:10, 16;stroke-dashoffset:0;stroke-opacity:1" d="M 593,1050 H 2343" inkscape:connector-curvature="0"/><path id="path84" style="fill:#000000;fill-opacity:1;fill-rule:evenodd;stroke:#000000;stroke-width:4;stroke-linecap:butt;stroke-linejoin:bevel;stroke-miterlimit:10;stroke-dasharray:none;stroke-opacity:1" d="m 2319,1030 24,-12 -24,-12 4,12 z" inkscape:connector-curvature="0"/><path id="path86" style="fill:none;stroke:#000000;stroke-width:4;stroke-linecap:butt;stroke-linejoin:bevel;stroke-miterlimit:10;stroke-dasharray:10, 16;stroke-dashoffset:0;stroke-opacity:1" d="M 1056,1018 H 2343" inkscape:connector-curvature="0"/><path id="path88" style="fill:#000000;fill-opacity:1;fill-rule:evenodd;stroke:#000000;stroke-width:4;stroke-linecap:butt;stroke-linejoin:bevel;stroke-miterlimit:10;stroke-dasharray:none;stroke-opacity:1" d="m 2319,998 24,-12 -24,-12 4,12 z" inkscape:connector-curvature="0"/><path id="path90" style="fill:none;stroke:#000000;stroke-width:4;stroke-linecap:butt;stroke-linejoin:bevel;stroke-miterlimit:10;stroke-dasharray:10, 16;stroke-dashoffset:0;stroke-opacity:1" d="m 1519,986 h 824" inkscape:connector-curvature="0"/><g id="g92"><g aria-label="&#339;" transform="translate(529,1050)" style="font-variant:normal;font-weight:normal;font-size:128px;font-family:'Opus Std';-inkscape-font-specification:OpusStd;writing-mode:lr-tb;fill:#000000;fill-opacity:1;fill-rule:nonzero;stroke:none" id="text96"><path d="m 14.336,16.64 c 13.184,0 29.44,-11.008 29.44,-22.272 0,-6.784 -6.016,-11.136 -14.592,-11.136 C 16.256,-16.768 0,-6.016 0,5.504 0,12.544 6.272,16.64 14.336,16.64 Z" style="" id="path97"/></g>
</g><g id="g98"><g aria-label="&#339;" transform="translate(760,1034)" style="font-variant:normal;font-weight:normal;font-size:128px;font-family:'Opus Std';-inkscape-font-specification:OpusStd;writing-mode:lr-tb;fill:#000000;fill-opacity:1;fill-rule:nonzero;stroke:none" id="text102"><path d="m 14.336,16.64 c 13.184,0 29.44,-11.008 29.44,-22.272 0,-6.784 -6.016,-11.136 -14.592,-11.136 C 16.256,-16.768 0,-6.016 0,5.504 0,12.544 6.272,16.64 14.336,16.64 Z" style="" id="path100"/></g>
</g><g id="g104"><g aria-label="&#339;" transform="translate(992,1018)" style="font-variant:normal;font-weight:normal;font-size:128px;font-family:'Opus Std';-inkscape-font-specification:OpusStd;writing-mode:lr-tb;fill:#000000;fill-opacity:1;fill-rule:nonzero;stroke:none" id="text108"><path d="m 14.336,16.64 c 13.184,0 29.44,-11.008 29.44,-22.272 0,-6.784 -6.016,-11.136 -14.592,-11.136 C 16.256,-16.768 0,-6.016 0,5.504 0,12.544 6.272,16.64 14.336,16.64 Z" style="" id="path103"/></g>
</g><g id="g110"><g aria-label="&#339;" transform="translate(1223,1002)" style="font-variant:normal;font-weight:normal;font-size:128px;font-family:'Opus Std';-inkscape-font-specification:OpusStd;writing-mode:lr-tb;fill:#000000;fill-opacity:1;fill-rule:nonzero;stroke:none" id="text114"><path d="m 14.336,16.64 c 13.184,0 29.44,-11.008 29.44,-22.272 0,-6.784 -6.016,-11.136 -14.592,-11.136 C 16.256,-16.768 0,-6.016 0,5.504 0,12.544 6.272,16.64 14.336,16.64 Z" style="" id="path106"/></g>
</g><g id="g116"><g aria-label="&#339;" transform="translate(1455,986)" style="font-variant:normal;font-weight:normal;font-size:128px;font-family:'Opus Std';-inkscape-font-specification:OpusStd;writing-mode:lr-tb;fill:#000000;fill-opacity:1;fill-rule:nonzero;stroke:none" id="text120"><path d="m 14.336,16.64 c 13.184,0 29.44,-11.008 29.44,-22.272 0,-6.784 -6.016,-11.136 -14.592,-11.136 C 16.256,-16.768 0,-6.016 0,5.504 0,12.544 6.272,16.64 14.336,16.64 Z" style="" id="path109"/></g>
</g><g id="g122"><g aria-label="&#339;" transform="translate(1686,970)" style="font-variant:normal;font-weight:normal;font-size:128px;font-family:'Opus Std';-inkscape-font-specification:OpusStd;writing-mode:lr-tb;fill:#000000;fill-opacity:1;fill-rule:nonzero;stroke:none" id="text126"><path d="m 14.336,16.64 c 13.184,0 29.44,-11.008 29.44,-22.272 0,-6.784 -6.016,-11.136 -14.592,-11.136 C 16.256,-16.768 0,-6.016 0,5.504 0,12.544 6.272,16.64 14.336,16.64 Z" style="" id="path112"/></g>
</g><g id="g128"><g aria-label="&#339;" transform="translate(1918,954)" style="font-variant:normal;font-weight:normal;font-size:128px;font-family:'Opus Std';-inkscape-font-specification:OpusStd;writing-mode:lr-tb;fill:#000000;fill-opacity:1;fill-rule:nonzero;stroke:none" id="text132"><path d="m 14.336,16.64 c 13.184,0 29.44,-11.008 29.44,-22.272 0,-6.784 -6.016,-11.136 -14.592,-11.136 C 16.256,-16.768 0,-6.016 0,5.504 0,12.544 6.272,16.64 14.336,16.64 Z" style="" id="path115"/></g>
</g><path id="path134" style="fill:none;stroke:#000000;stroke-width:5;stroke-linecap:butt;stroke-linejoin:bevel;stroke-miterlimit:10;stroke-dasharray:none;stroke-opacity:1" d="m 2137,938 h 68" inkscape:connector-curvature="0"/><g id="g136"><g aria-label="&#339;" transform="translate(2149,938)" style="font-variant:normal;font-weight:normal;font-size:128px;font-family:'Opus Std';-inkscape-font-specification:OpusStd;writing-mode:lr-tb;fill:#000000;fill-opacity:1;fill-rule:nonzero;stroke:none" id="text140"><path d="m 14.336,16.64 c 13.184,0 29.44,-11.008 29.44,-22.272 0,-6.784 -6.016,-11.136 -14.592,-11.136 C 16.256,-16.768 0,-6.016 0,5.504 0,12.544 6.272,16.64 14.336,16.64 Z" style="" id="path118"/></g>
</g><g id="g142"><g aria-label="&#339;" transform="translate(2381,986)" style="font-variant:normal;font-weight:normal;font-size:128px;font-family:'Opus Std';-inkscape-font-specification:OpusStd;writing-mode:lr-tb;fill:#000000;fill-opacity:1;fill-rule:nonzero;stroke:none" id="text146"><path d="m 14.336,16.64 c 13.184,0 29.44,-11.008 29.44,-22.272 0,-6.784 -6.016,-11.136 -14.592,-11.136 C 16.256,-16.768 0,-6.016 0,5.504 0,12.544 6.272,16.64 14.336,16.64 Z" style="" id="path121"/></g>
</g><g id="g148"><g aria-label="&#339;" transform="translate(2381,1018)" style="font-variant:normal;font-weight:normal;font-size:128px;font-family:'Opus Std';-inkscape-font-specification:OpusStd;writing-mode:lr-tb;fill:#000000;fill-opacity:1;fill-rule:nonzero;stroke:none" id="text152"><path d="m 14.336,16.64 c 13.184,0 29.44,-11.008 29.44,-22.272 0,-6.784 -6.016,-11.136 -14.592,-11.136 C 16.256,-16.768 0,-6.016 0,5.504 0,12.544 6.272,16.64 14.336,16.64 Z" style="" id="path124"/></g>
</g><g id="g154"><g aria-label="&#339;" transform="translate(2381,1050)" style="font-variant:normal;font-weight:normal;font-size:128px;font-family:'Opus Std';-inkscape-font-specification:OpusStd;writing-mode:lr-tb;fill:#000000;fill-opacity:1;fill-rule:nonzero;stroke:none" id="text158"><path d="m 14.336,16.64 c 13.184,0 29.44,-11.008 29.44,-22.272 0,-6.784 -6.016,-11.136 -14.592,-11.136 C 16.256,-16.768 0,-6.016 0,5.504 0,12.544 6.272,16.64 14.336,16.64 Z" style="" id="path127"/></g>
</g></g></g></g></g></svg>